<?xml version="1.0" standalone="no"?>
<!DOCTYPE svg PUBLIC "-//W3C//DTD SVG 1.1//EN" "http://www.w3.org/Graphics/SVG/1.1/DTD/svg11.dtd" >
<svg>
<metadata>
Created by FontForge 20090622 at Tue Oct 29 13:04:44 2019
 By deploy user
&#208;&#186;&#208;&#190;&#208;&#191;&#208;&#184;&#209;&#128;&#208;&#176;&#208;&#185;&#209;&#130; &#209;&#129;&#209;&#130;&#208;&#184;&#208;&#178;&#208;&#184;
</metadata>
<defs>
<font id="NodestoCyrillic" horiz-adv-x="356" >
  <font-face 
    font-family="Nodesto Cyrillic"
    font-weight="400"
    font-stretch="normal"
    units-per-em="1000"
    panose-1="2 0 5 6 4 0 0 2 0 4"
    ascent="935"
    descent="-65"
    x-height="559"
    cap-height="699"
    bbox="-22 -172 924 846"
    underline-thickness="20"
    underline-position="-113"
    unicode-range="U+001D-U+FB02"
  />
<missing-glyph horiz-adv-x="140" 
 />
    <glyph glyph-name=".notdef" horiz-adv-x="140" 
 />
    <glyph glyph-name="NULL" horiz-adv-x="0" 
 />
    <glyph glyph-name="glyph2" horiz-adv-x="333" 
 />
    <glyph glyph-name=".null" horiz-adv-x="0" 
 />
    <glyph glyph-name=".null" horiz-adv-x="0" 
 />
    <glyph glyph-name="nonmarkingreturn" horiz-adv-x="140" 
 />
    <glyph glyph-name="space" unicode=" " horiz-adv-x="140" 
 />
    <glyph glyph-name="exclam" unicode="!" horiz-adv-x="218" 
d="M190 681q-18 0 -20 -46l-23 -434h-77l-22 434q-2 46 -20 46v18h162v-18zM168 51q0 -23 -17.5 -40.5t-40.5 -17.5t-40.5 17.5t-17.5 40.5t17.5 40.5t40.5 17.5t40.5 -17.5t17.5 -40.5z" />
    <glyph glyph-name="quotedbl" unicode="&#x22;" horiz-adv-x="244" 
d="M214 699l-16 -176h-51l-16 176h83zM114 699l-16 -176h-51l-17 176h84z" />
    <glyph glyph-name="numbersign" unicode="#" horiz-adv-x="492" 
d="M466 493l-16 -70h-70l-31 -153h70l-13 -69h-71l-41 -195h-84l40 195h-70l-41 -195h-81l41 195h-73l16 69h71l33 153h-79l18 70h74l42 201h81l-43 -201h71l43 201h83l-41 -201h71zM296 423h-70l-32 -153h70z" />
    <glyph glyph-name="dollar" unicode="$" horiz-adv-x="381" 
d="M347 200q0 -76 -38 -121.5t-105 -55.5v-56h-48v55q-17 2 -40.5 6.5t-28.5 4.5q-19 0 -34 -3l-19 141l22 6q12 -30 32 -43t62 -13q32 0 52.5 18t20.5 49q0 32 -17 63.5t-57 76.5q-60 66 -86.5 107.5t-26.5 86.5q0 60 33 99.5t87 49.5v61h47v-60q11 0 34.5 -5t36.5 -5
q18 0 31 5l20 -132l-20 -6q-24 43 -82 43q-59 0 -59 -49q0 -24 27 -57l64 -75q43 -50 67.5 -94t24.5 -97z" />
    <glyph glyph-name="percent" unicode="%" horiz-adv-x="674" 
d="M302 536q0 -90 -34.5 -138.5t-97.5 -48.5t-96.5 48.5t-33.5 139.5q0 85 34.5 128t96.5 43q59 0 95 -44t36 -128zM487 711l-227 -719h-77l226 719h78zM634 179q0 -90 -34.5 -138.5t-97.5 -48.5t-96 48t-33 139q0 85 34.5 128.5t95.5 43.5q59 0 95 -44t36 -128zM212 535
q0 57 -10 79.5t-32 22.5t-31.5 -22t-9.5 -79q0 -65 10 -90.5t32 -25.5q41 0 41 115zM545 178q0 57 -10 79.5t-33 22.5q-22 0 -31.5 -22t-9.5 -79q0 -65 10 -90.5t32 -25.5q42 0 42 115z" />
    <glyph glyph-name="ampersand" unicode="&#x26;" horiz-adv-x="495" 
d="M483 335q0 -31 -9 -45h-14q-6 17 -25 17q-20 0 -41 -28t-32 -61l58 -159q9 -25 19 -33t26 -8v-18h-145l-21 55q-49 -61 -128 -61q-69 0 -110 54.5t-41 159.5q0 153 131 257l-81 234h275q13 0 26 5l29 -132l-21 -4q-12 35 -46 35h-104l96 -281q29 94 98 94q28 0 44 -23
t16 -58zM265 144l-73 208q-52 -41 -52 -136q0 -118 62 -118q16 0 34 14t29 32z" />
    <glyph glyph-name="quotesingle" unicode="'" horiz-adv-x="144" 
d="M114 700l-16 -176h-51l-17 176h84z" />
    <glyph glyph-name="parenleft" unicode="(" horiz-adv-x="328" 
d="M298 -53q-45 18 -82.5 47.5t-72 76t-54 118.5t-19.5 161t19.5 161t54 118.5t72 76t82.5 47.5v-46q-109 -90 -109 -357q0 -266 109 -356v-47z" />
    <glyph glyph-name="parenright" unicode=")" horiz-adv-x="329" 
d="M259 350q0 -89 -20 -161t-54.5 -118.5t-72 -76t-82.5 -47.5v46q108 89 108 357t-108 357v46q45 -18 82.5 -47.5t72 -76t54.5 -118.5t20 -161z" />
    <glyph glyph-name="asterisk" unicode="*" horiz-adv-x="336" 
d="M301 591l-96 -6l70 -69l-67 -48l-40 90l-40 -90l-69 47l70 69l-94 9l24 80l84 -45l-15 92h82l-20 -92l89 45z" />
    <glyph glyph-name="plus" unicode="+" horiz-adv-x="445" 
d="M405 272h-137v-150h-92v150h-136v91h136v149h92v-149h137v-91z" />
    <glyph glyph-name="comma" unicode="," horiz-adv-x="188" 
d="M153 41q0 -45 -28 -78t-72 -49l-18 26q54 20 63 57q-62 -2 -62 55q0 24 17 40.5t40 16.5q29 0 44.5 -18.5t15.5 -49.5z" />
    <glyph glyph-name="hyphen" unicode="-" horiz-adv-x="255" 
d="M220 254h-185v92h185v-92z" />
    <glyph glyph-name="period" unicode="." horiz-adv-x="186" 
d="M151 51q0 -23 -17.5 -40.5t-40.5 -17.5t-40.5 17.5t-17.5 40.5t17.5 40.5t40.5 17.5t40.5 -17.5t17.5 -40.5z" />
    <glyph glyph-name="slash" unicode="/" horiz-adv-x="320" 
d="M300 753l-199 -805h-81l197 805h83z" />
    <glyph glyph-name="zero" unicode="0" horiz-adv-x="405" 
d="M381 366q0 -201 -43.5 -292t-136.5 -91q-92 0 -134.5 91.5t-42.5 290.5q0 351 179 351q178 0 178 -350zM259 365q0 135 -13 192.5t-45 57.5q-31 0 -44 -58.5t-13 -191.5q0 -163 13 -221.5t46 -58.5q31 0 43.5 59.5t12.5 220.5z" />
    <glyph glyph-name="one" unicode="1" horiz-adv-x="404" 
d="M314 0h-179v18q31 0 31 34v473l-108 -13v73q120 16 163 114h66q-5 -21 -5 -49v-597q0 -15 9 -25t23 -10v-18z" />
    <glyph glyph-name="two" unicode="2" horiz-adv-x="375" 
d="M355 137l-30 -144q-12 7 -39 7h-271q0 172 133 356q41 57 57.5 96t16.5 80q0 36 -22 56t-58 20q-33 0 -51 -12t-31 -38l-22 4l23 143q15 -5 28 -5q7 0 36 5t47 5q78 0 124.5 -41t46.5 -128q0 -70 -25 -127t-77 -122q-85 -107 -93 -189h137q36 0 48 40z" />
    <glyph glyph-name="three" unicode="3" horiz-adv-x="367" 
d="M347 201q0 -94 -53 -153t-125 -59q-23 0 -60.5 5t-43.5 5q-18 0 -29 -4l-21 134l21 5q21 -48 94 -48q100 0 100 117q0 64 -28.5 92t-64.5 28h-28v85h31q34 0 57 25t23 84q0 94 -86 94q-62 0 -85 -48l-22 6l22 136q8 -4 28 -4q5 0 38 4.5t58 4.5q63 0 112.5 -48.5
t49.5 -130.5q0 -60 -27 -102.5t-59 -57.5v-2q42 -10 70 -54t28 -114z" />
    <glyph glyph-name="four" unicode="4" horiz-adv-x="406" 
d="M386 227l-21 -103h-48v-66q0 -39 26 -39v-19h-165v19q25 0 25 39v66h-166l-23 66l166 509h145q-8 -26 -8 -61v-418h12q33 0 57 7zM203 220v305h-4l-90 -305h94z" />
    <glyph glyph-name="five" unicode="5" horiz-adv-x="365" 
d="M345 238q0 -120 -48.5 -184t-115.5 -64q-28 0 -62.5 9t-40.5 9q-17 0 -29 -4l-24 143l23 5q9 -19 17 -29.5t29 -21t51 -10.5q82 0 82 143q0 68 -19 99.5t-47 31.5q-34 0 -48 -31l-82 17l33 348h196q20 0 36 6l26 -133l-22 -7q-7 19 -16.5 26.5t-30.5 7.5h-89l-14 -141
q25 8 58 8q57 0 97 -58t40 -170z" />
    <glyph glyph-name="six" unicode="6" horiz-adv-x="390" 
d="M370 230q0 -114 -44 -179t-125 -65q-93 0 -135 77t-42 266q0 203 48 292.5t146 89.5q16 0 40 -7t31 -7q14 0 23 3l21 -132l-21 -6q-13 29 -30.5 41t-53.5 12q-85 0 -86 -183q35 31 80 31q148 0 148 -233zM254 227q0 75 -13.5 103.5t-41.5 28.5q-31 0 -53 -24
q-2 -18 -2 -53q0 -196 55 -196t55 141z" />
    <glyph glyph-name="seven" unicode="7" horiz-adv-x="405" 
d="M383 666q-100 -166 -138 -380q-26 -145 -26 -240q0 -27 28 -27v-19h-157q0 32 1 50q18 336 149 547l-1 2h-145q-38 0 -49 -32l-20 4l27 134q14 -6 40 -6h274z" />
    <glyph glyph-name="eight" unicode="8" horiz-adv-x="383" 
d="M363 195q0 -95 -46.5 -153t-124.5 -58q-81 0 -126.5 57.5t-45.5 153.5q0 130 87 168v2q-28 16 -53.5 60t-25.5 109q0 80 45.5 131t118.5 51q68 0 115 -50.5t47 -130.5q0 -119 -78 -170v-2q36 -16 61.5 -56.5t25.5 -111.5zM247 519q0 101 -56 101q-54 0 -54 -101
q0 -52 17 -77.5t39 -25.5q21 0 37.5 26t16.5 77zM250 198q0 55 -16 83.5t-43 28.5q-26 0 -42 -28t-16 -83q0 -120 60 -120q27 0 42 31.5t15 87.5z" />
    <glyph glyph-name="nine" unicode="9" horiz-adv-x="387" 
d="M363 369q0 -202 -48.5 -291.5t-146.5 -89.5q-16 0 -41 8t-29 8q-14 0 -24 -4l-21 132l24 5q12 -27 30.5 -39.5t51.5 -12.5q85 0 86 181q-34 -30 -81 -30q-149 0 -149 232q0 114 45 179t126 65q90 0 133.5 -75.5t43.5 -267.5zM243 416q0 80 -7 123.5t-18.5 57t-30.5 13.5
q-30 0 -43 -32.5t-13 -106.5q0 -76 13 -104t43 -28q32 0 54 24q2 18 2 53z" />
    <glyph glyph-name="colon" unicode=":" horiz-adv-x="186" 
d="M151 351q0 -23 -17.5 -40.5t-40.5 -17.5t-40.5 17.5t-17.5 40.5t17.5 40.5t40.5 17.5t40.5 -17.5t17.5 -40.5zM151 51q0 -23 -17.5 -40.5t-40.5 -17.5t-40.5 17.5t-17.5 40.5t17.5 40.5t40.5 17.5t40.5 -17.5t17.5 -40.5z" />
    <glyph glyph-name="semicolon" unicode=";" horiz-adv-x="188" 
d="M152 351q0 -23 -17.5 -40.5t-40.5 -17.5t-40.5 17.5t-17.5 40.5t17.5 40.5t40.5 17.5t40.5 -17.5t17.5 -40.5zM153 41q0 -45 -28 -78t-72 -49l-18 26q54 20 63 57q-62 0 -62 55q0 24 17 40.5t40 16.5q29 0 44.5 -18.5t15.5 -49.5z" />
    <glyph glyph-name="less" unicode="&#x3c;" horiz-adv-x="453" 
d="M398 135l-343 150v62l343 149v-102l-199 -78l199 -78v-103z" />
    <glyph glyph-name="equal" unicode="=" horiz-adv-x="428" 
d="M373 341h-318v91h318v-91zM373 201h-318v90h318v-90z" />
    <glyph glyph-name="greater" unicode="&#x3e;" horiz-adv-x="452" 
d="M397 284l-342 -150v103l200 78l-200 78v102l342 -149v-62z" />
    <glyph glyph-name="question" unicode="?" horiz-adv-x="342" 
d="M317 561q0 -70 -80 -167q-46 -55 -46 -146q0 -28 28 -28v-22h-119q-7 28 -7 62q0 99 45 166q26 37 34 49.5t15.5 33t7.5 43.5q0 55 -64 55q-63 0 -83 -51l-23 5l23 144q11 -5 34 -5q5 0 31 5t45 5q73 0 116 -36.5t43 -112.5zM222 51q0 -23 -17.5 -40.5t-40.5 -17.5
t-40.5 17.5t-17.5 40.5t17.5 40.5t40.5 17.5t40.5 -17.5t17.5 -40.5z" />
    <glyph glyph-name="at" unicode="@" horiz-adv-x="839" 
d="M799 316q0 -118 -52.5 -189.5t-140.5 -71.5q-97 0 -126 45h-2q-30 -41 -90 -41q-50 0 -79.5 30t-29.5 85q0 125 173 189v9q0 28 -13 39t-45 11q-24 0 -41 -11.5t-22 -29.5l-21 4l17 126q18 -6 25 -6q6 0 35 5.5t49 5.5q58 0 93.5 -36t35.5 -98v-215q0 -30 48 -30
q44 0 68 45t24 133q0 141 -72 226.5t-205 85.5t-212.5 -97.5t-79.5 -239.5q0 -154 78 -246t214 -92q70 0 154 42q27 -58 38 -77q-93 -45 -192 -45q-183 0 -285.5 113.5t-102.5 304.5q0 175 108.5 296t279.5 121q172 0 271.5 -108t99.5 -283zM452 195v81q-63 -27 -63 -78
q0 -18 9.5 -29.5t23.5 -11.5t22 11.5t8 26.5z" />
    <glyph glyph-name="A" unicode="A" horiz-adv-x="441" 
d="M433 0h-174v19q24 0 24 21q0 27 -7 71q-22 -11 -57 -11q-37 0 -61 11q-9 -57 -9 -71q0 -21 24 -21v-19h-165v19q22 0 27 28l92 591q2 12 2 21q0 21 -18 21v19h219v-19q-19 0 -19 -20q0 -5 2 -23l90 -588q5 -30 30 -30v-19zM264 216l-43 360h-7l-42 -360q18 -11 48 -11
q26 0 44 11z" />
    <glyph glyph-name="B" unicode="B" horiz-adv-x="426" 
d="M410 206q0 -104 -59.5 -158t-177.5 -54q-91 0 -151 6v19q13 0 23 9.5t10 23.5v592q0 36 -33 36v19q93 8 154 8q209 0 209 -173q0 -110 -75 -149v-2q38 -11 69 -57.5t31 -119.5zM259 522q0 41 -17.5 62t-45.5 21q-4 0 -8.5 -0.5t-7 -0.5h-3.5v-176q8 -1 15 -1
q30 0 48.5 25t18.5 70zM284 216q0 54 -22 82t-57 28q-19 0 -28 -1v-229q6 -1 27 -1q80 0 80 121z" />
    <glyph glyph-name="C" unicode="C" horiz-adv-x="369" 
d="M351 131l-24 -140q-9 3 -23 3q-1 0 -28 -3.5t-45 -3.5q-106 0 -159.5 96t-53.5 271q0 170 57 264.5t156 94.5q13 0 39.5 -3.5t31.5 -3.5q14 0 26 4l22 -134l-22 -6q-16 42 -75 42q-48 0 -78.5 -65t-30.5 -193q0 -146 27.5 -206t85.5 -60q31 0 47 11t25 38z" />
    <glyph glyph-name="D" unicode="D" horiz-adv-x="438" 
d="M420 370q0 -196 -55.5 -286t-179.5 -90q-111 0 -163 6v19q15 0 24 9t9 23v596q0 15 -9 24t-24 9v20q75 7 161 7q120 0 178.5 -77t58.5 -260zM294 370q0 130 -23 182t-65 52q-23 0 -29 -1v-506q6 -1 23 -1q49 0 71.5 64t22.5 210z" />
    <glyph glyph-name="E" unicode="E" horiz-adv-x="382" 
d="M363 130l-24 -138q-11 8 -46 8h-271v19q14 0 23.5 10.5t9.5 28.5v584q0 38 -33 38v19h256q43 0 55 8l27 -136l-22 -7q-13 35 -43 35h-119v-165h104q16 0 26.5 10t10.5 24h20v-168h-20q0 14 -9.5 24t-27.5 10h-103v-234h116q33 0 50 36z" />
    <glyph glyph-name="F" unicode="F" horiz-adv-x="375" 
d="M359 571l-21 -6q-12 34 -47 34h-115v-176h108q16 0 27 10t11 24h18v-167h-18q0 33 -38 33h-107v-265q0 -39 35 -39v-19h-190v19q14 0 23.5 10.5t9.5 28.5v584q0 18 -9.5 28t-23.5 10v19h260q36 0 50 8z" />
    <glyph glyph-name="G" unicode="G" horiz-adv-x="428" 
d="M418 344q-14 0 -23.5 -10t-9.5 -27v-216q0 -38 9 -59q-72 -42 -170 -42q-103 0 -154.5 96t-51.5 271q0 181 62.5 268t158.5 87q11 0 35 -3t31 -3q13 0 23 5l20 -133l-22 -7q-11 22 -26 31.5t-44 9.5q-112 0 -112 -254q0 -108 13 -168.5t33.5 -79.5t52.5 -19q10 0 18 2
v214q0 18 -9.5 27.5t-23.5 9.5v20h190v-20z" />
    <glyph glyph-name="H" unicode="H" horiz-adv-x="469" 
d="M447 0h-188v19q33 0 33 39v276h-114v-276q0 -18 9 -28.5t24 -10.5v-19h-189v19q14 0 23.5 10.5t9.5 28.5v583q0 18 -9.5 28.5t-23.5 10.5v19h189v-19q-15 0 -24 -10.5t-9 -28.5v-208h114v208q0 39 -33 39v19h188v-19q-33 0 -33 -39v-583q0 -39 33 -39v-19z" />
    <glyph glyph-name="I" unicode="I" horiz-adv-x="233" 
d="M211 0h-189v19q14 0 23.5 10.5t9.5 28.5v584q0 38 -33 38v19h189v-19q-33 0 -33 -38v-584q0 -39 33 -39v-19z" />
    <glyph glyph-name="J" unicode="J" horiz-adv-x="369" 
d="M349 680q-14 0 -23.5 -11t-9.5 -28v-497q0 -36 14 -55q-67 -100 -174 -100q-43 0 -84 13.5t-60 28.5l48 117l20 -7q-1 -5 -1 -13q0 -15 16.5 -26.5t40.5 -11.5q27 0 42 16t15 43v492q0 18 -10 28.5t-24 10.5v19h190v-19z" />
    <glyph glyph-name="K" unicode="K" horiz-adv-x="460" 
d="M452 0h-159q-45 134 -81 325l-34 -57v-210q0 -18 9 -28.5t24 -10.5v-19h-189v19q14 0 23.5 10.5t9.5 28.5v583q0 39 -33 39v19h189v-19q-15 0 -24 -11.5t-9 -27.5v-226h2l87 203q15 34 15 42q0 20 -27 20v19h188v-19q-26 0 -37 -23l-102 -214q30 -154 103 -380
q9 -27 19.5 -35.5t25.5 -8.5v-19z" />
    <glyph glyph-name="L" unicode="L" horiz-adv-x="378" 
d="M370 133l-29 -140q-11 7 -55 7h-264v19q14 0 23.5 10.5t9.5 28.5v583q0 39 -33 39v19h190v-19q-14 0 -24.5 -11.5t-10.5 -27.5v-538h122q36 0 51 37z" />
    <glyph glyph-name="M" unicode="M" horiz-adv-x="567" 
d="M545 0h-189v19q14 0 23.5 10.5t9.5 28.5v362h-2l-87 -271h-38l-90 271h-2v-362q0 -19 9.5 -29t23.5 -10v-19h-181v19q14 0 23.5 10.5t9.5 28.5v583q0 39 -33 39v19h165q0 -29 7 -49l91 -265h3l82 257q11 34 10 57h165v-19q-14 0 -23.5 -11t-9.5 -28v-583q0 -18 9 -28.5
t24 -10.5v-19z" />
    <glyph glyph-name="N" unicode="N" horiz-adv-x="460" 
d="M438 680q-14 0 -24 -11t-10 -28v-583q0 -39 26 -39v-19h-140v180l-119 263h-2v-385q0 -17 9 -28t24 -11v-19h-180v19q15 0 24 10.5t9 28.5v583q0 18 -9.5 28.5t-23.5 10.5v19h151q0 -19 12 -46l103 -240h3v228q0 18 -9.5 28.5t-24.5 10.5v19h181v-19z" />
    <glyph glyph-name="O" unicode="O" horiz-adv-x="418" 
d="M400 366q0 -202 -46 -293.5t-145 -91.5q-98 0 -144.5 93t-46.5 291q0 355 193 355q189 0 189 -354zM274 365q0 136 -15 195.5t-50 59.5q-65 0 -65 -255q0 -155 16 -219t51 -64q33 0 48 63t15 220z" />
    <glyph glyph-name="P" unicode="P" horiz-adv-x="380" 
d="M364 463q0 -239 -191 -239q-10 0 -17 1v-167q0 -18 9.5 -28.5t25.5 -10.5v-19h-190v19q14 0 23.5 10.5t9.5 28.5v580q0 42 -33 42v19q74 6 147 6q102 0 159 -60.5t57 -181.5zM240 463q0 70 -18.5 105.5t-49.5 35.5q-9 0 -16 -1v-279q6 -1 16 -1q68 0 68 140z" />
    <glyph glyph-name="Q" unicode="Q" horiz-adv-x="419" 
d="M410 51q-8 -101 -70 -101q-42 0 -75 45q-20 -11 -57 -11q-190 0 -190 381q0 183 51 269t141 86q89 0 139.5 -87t50.5 -267q0 -224 -63 -306q11 -27 28 -27q18 0 29 23zM274 365q0 136 -15 195.5t-50 59.5q-65 0 -65 -255q0 -155 16 -219t51 -64q33 0 48 63t15 220z" />
    <glyph glyph-name="R" unicode="R" horiz-adv-x="439" 
d="M431 0h-155q-14 49 -29 137t-20 148h-50v-227q0 -17 9 -28t24 -11v-19h-188v19q14 0 23.5 10.5t9.5 28.5v584q0 38 -33 38v19q83 8 176 8q210 0 210 -210q0 -139 -78 -179q21 -126 63 -268q4 -12 15 -21.5t23 -9.5v-19zM282 495q0 111 -81 111q-20 0 -24 -1v-224
q8 -1 24 -1q81 0 81 115z" />
    <glyph glyph-name="S" unicode="S" horiz-adv-x="346" 
d="M328 182q0 -96 -47 -145.5t-131 -49.5q-20 0 -48 6t-35 6q-14 0 -29 -5l-20 151l24 7q8 -32 28.5 -48t63.5 -16q33 0 54 21.5t21 58.5q0 40 -16.5 73t-57.5 80q-59 68 -86 118t-27 105q0 77 43 122t122 45q15 0 42.5 -6t37.5 -6q18 0 30 7l21 -133l-23 -6q-20 44 -89 44
q-29 0 -45.5 -19t-16.5 -46q0 -38 28 -75l68 -86q45 -57 66.5 -102t21.5 -101z" />
    <glyph glyph-name="T" unicode="T" horiz-adv-x="411" 
d="M403 571l-20 -5q-7 18 -17.5 25.5t-34.5 7.5h-64v-541q0 -17 9 -28t24 -11v-19h-189v19q14 0 24 10.5t10 28.5v541h-67q-22 0 -33 -7.5t-16 -25.5l-21 5l24 135q16 -7 45 -7h262q26 0 38 8z" />
    <glyph glyph-name="U" unicode="U" horiz-adv-x="463" 
d="M443 680q-15 0 -24 -10.5t-9 -27.5v-510q0 -34 8 -58q-28 -36 -76.5 -63.5t-107.5 -27.5q-115 0 -188 91q7 20 7 58v510q0 18 -9.5 28t-23.5 10v19h187v-19q-33 0 -33 -38v-498q0 -30 17 -44.5t43 -14.5t43.5 15t17.5 44v498q0 18 -9.5 28t-23.5 10v19h181v-19z" />
    <glyph glyph-name="V" unicode="V" horiz-adv-x="438" 
d="M430 680q-25 0 -30 -29q-7 -42 -17.5 -111l-33 -214.5l-37 -239t-13.5 -86.5h-153l-107 650q-5 30 -31 30v19h178v-19q-25 0 -25 -21q0 -6 2 -26l58 -481h5l59 477q2 16 2 26q0 25 -25 25v19h168v-19z" />
    <glyph glyph-name="W" unicode="W" horiz-adv-x="603" 
d="M595 680q-27 0 -31 -34l-84 -646h-106l-70 239h-5l-70 -239h-101l-88 646q-5 34 -32 34v19h183v-19q-28 0 -28 -22q0 -8 2 -30l38 -399h4l70 242h56l71 -242h3l36 403q1 11 1 24q0 24 -29 24v19h180v-19z" />
    <glyph glyph-name="X" unicode="X" horiz-adv-x="441" 
d="M427 0h-190v19q23 0 23 21q0 6 -4 26l-42 185h-1l-41 -187q-4 -20 -4 -22q0 -23 25 -23v-19h-179v19q27 0 38 37l97 305l-95 283q-13 36 -36 36v19h190v-19q-12 0 -19 -6t-7 -14q0 -12 5 -29l41 -162h2l41 166q3 12 3 21q0 24 -25 24v19h175v-19q-25 0 -37 -36l-97 -285
l99 -303q12 -37 38 -37v-19z" />
    <glyph glyph-name="Y" unicode="Y" horiz-adv-x="432" 
d="M426 680q-23 0 -31 -28l-119 -397v-197q0 -17 9 -28t24 -11v-19h-188v19q33 0 33 39v197l-114 395q-8 30 -34 30v19h186v-19q-24 0 -24 -19q0 -8 4 -28l50 -235h2l55 243q3 15 3 18q0 21 -27 21v19h171v-19z" />
    <glyph glyph-name="Z" unicode="Z" horiz-adv-x="374" 
d="M360 130l-24 -136q-12 6 -43 6h-266l-13 29l195 570h-122q-31 0 -46 -34l-23 6l25 135q16 -7 44 -7h249l15 -33l-187 -566h121q38 0 52 36z" />
    <glyph glyph-name="bracketleft" unicode="[" horiz-adv-x="296" 
d="M266 -54h-186v807h185v-46h-85v-716h86v-45z" />
    <glyph glyph-name="backslash" unicode="\" horiz-adv-x="326" 
d="M306 -52h-87l-199 805h89z" />
    <glyph glyph-name="bracketright" unicode="]" horiz-adv-x="296" 
d="M216 -54h-186v45h85v716h-85v46h186v-807z" />
    <glyph glyph-name="asciicircum" unicode="^" horiz-adv-x="444" 
d="M405 376h-92l-96 225l-93 -225h-94l145 329h82z" />
    <glyph glyph-name="underscore" unicode="_" horiz-adv-x="307" 
d="M311 -129h-315v83h315v-83z" />
    <glyph glyph-name="grave" unicode="`" 
d="M245 627h-55l-81 80h84z" />
    <glyph glyph-name="a" unicode="a" horiz-adv-x="378" 
d="M372 0h-157v18q20 0 20 17q0 24 -5 52q-22 -8 -46 -8t-46 8q-6 -34 -6 -52q0 -17 20 -17v-18h-146v18q21 0 24 22l78 470q2 16 2 17q0 14 -15 14v18h188v-18q-14 0 -14 -13q0 -5 2 -19l76 -468q4 -23 25 -23v-18zM219 176l-36 273h-1l-32 -273q13 -8 35 -8q18 0 34 8z
" />
    <glyph glyph-name="b" unicode="b" horiz-adv-x="364" 
d="M352 166q0 -89 -51.5 -130.5t-154.5 -41.5q-55 0 -129 6v18q29 0 29 26v469q0 28 -29 28v18q64 6 133 6q181 0 181 -140q0 -82 -61 -115v-3q30 -11 56 -51t26 -90zM219 413q0 66 -51 66q-6 0 -13 -1v-133q5 -1 10 -1q54 0 54 69zM240 166q0 92 -64 92q-12 0 -21 -1v-176
q8 -1 20 -1q27 0 46 19.5t19 66.5z" />
    <glyph glyph-name="c" unicode="c" horiz-adv-x="325" 
d="M311 109l-23 -116q-9 3 -22 3q-1 0 -23 -3.5t-39 -3.5q-92 0 -138 78t-46 217q0 135 49.5 210.5t134.5 75.5q12 0 34 -2.5t27 -2.5q16 0 24 4l19 -114l-20 -6q-10 19 -24 27t-42 8q-39 0 -65 -49.5t-26 -150.5q0 -115 23.5 -162t71.5 -47q45 0 63 42z" />
    <glyph glyph-name="d" unicode="d" horiz-adv-x="381" 
d="M361 295q0 -155 -48.5 -228t-154.5 -73q-93 0 -141 6v18q29 0 29 24v473q0 26 -29 26v19q65 5 140 5q103 0 153.5 -62t50.5 -208zM248 293q0 184 -71 184q-5 0 -12 -0.5t-10 -0.5v-397q2 0 7.5 -0.5t8.5 -0.5q40 0 58.5 49.5t18.5 165.5z" />
    <glyph glyph-name="e" unicode="e" horiz-adv-x="325" 
d="M311 111l-21 -117q-12 6 -38 6h-235v18q13 0 21 8.5t8 22.5v463q0 13 -8 21t-21 8v18h228q25 0 39 6l22 -113l-18 -6q-9 29 -33 29h-101v-125h83q14 0 23.5 7t9.5 19h18v-139h-18q0 28 -33 28h-82v-180h99q24 0 39 32z" />
    <glyph glyph-name="f" unicode="f" horiz-adv-x="318" 
d="M306 452l-18 -6q-5 17 -13 23t-28 6h-93v-135h82q15 0 24 8t9 20h18v-138h-18q0 26 -33 26h-81v-207q0 -14 9 -22.5t23 -8.5v-18h-170v18q14 0 21.5 9t7.5 22v463q0 29 -29 29v18h222q31 0 45 6z" />
    <glyph glyph-name="g" unicode="g" horiz-adv-x="373" 
d="M365 276q-13 0 -21.5 -7.5t-8.5 -20.5v-175q0 -29 8 -48q-61 -36 -146 -36q-89 0 -133 76.5t-44 219.5q0 144 53.5 215t135.5 71q9 0 30.5 -2t27.5 -2q14 0 22 4l17 -114l-20 -5q-18 35 -62 35q-93 0 -93 -201q0 -124 21 -167.5t61 -43.5h13v173q0 28 -29 28v20h168v-20z
" />
    <glyph glyph-name="h" unicode="h" horiz-adv-x="402" 
d="M385 0h-168v18q14 0 22 8.5t8 22.5v216h-92v-216q0 -14 8 -22.5t22 -8.5v-18h-168v18q13 0 21 8.5t8 22.5v462q0 13 -8 21.5t-21 8.5v18h168v-18q-30 0 -30 -30v-162h92v162q0 13 -8.5 21.5t-21.5 8.5v18h168v-18q-29 0 -29 -30v-462q0 -14 8 -22.5t21 -8.5v-18z" />
    <glyph glyph-name="i" unicode="i" horiz-adv-x="202" 
d="M185 0h-168v18q13 0 21 8.5t8 22.5v463q0 29 -29 29v18h168v-18q-30 0 -30 -29v-463q0 -31 30 -31v-18z" />
    <glyph glyph-name="j" unicode="j" horiz-adv-x="316" 
d="M301 541q-29 0 -29 -30v-393q0 -26 14 -44q-66 -85 -151 -85q-76 0 -127 38l43 101l20 -7q-2 -12 -2 -15q0 -11 14 -21t34 -10q46 0 46 46v390q0 14 -9 22t-22 8v18h169v-18z" />
    <glyph glyph-name="k" unicode="k" horiz-adv-x="397" 
d="M389 0h-136q-41 111 -67 252l-31 -38v-165q0 -13 8.5 -22t21.5 -9v-18h-168v18q13 0 21 8.5t8 22.5v462q0 30 -29 30v18h168v-18q-13 0 -21.5 -8.5t-8.5 -21.5v-178h5l66 159q12 28 12 35q0 14 -22 14v18h163v-18q-21 0 -31 -19l-81 -164q29 -157 84 -304q8 -22 16.5 -29
t21.5 -7v-18z" />
    <glyph glyph-name="l" unicode="l" horiz-adv-x="324" 
d="M316 114l-24 -122q-14 8 -49 8h-226v18q13 0 21 8.5t8 22.5v462q0 30 -29 30v18h167v-18q-13 0 -21 -8.5t-8 -21.5v-424h99q27 0 42 33z" />
    <glyph glyph-name="m" unicode="m" horiz-adv-x="483" 
d="M466 0h-168v18q13 0 21.5 8.5t8.5 22.5v275h-2l-68 -198h-37l-71 199h-3v-276q0 -14 8.5 -22.5t21.5 -8.5v-18h-160v18q13 0 21 8.5t8 22.5v462q0 30 -29 30v18h141q-1 -16 9 -41l74 -204h3l67 198q9 22 9 47h146v-18q-13 0 -21.5 -8.5t-8.5 -21.5v-462q0 -13 8.5 -22
t21.5 -9v-18z" />
    <glyph glyph-name="n" unicode="n" horiz-adv-x="393" 
d="M376 541q-13 0 -21 -8.5t-8 -21.5v-462q0 -31 20 -31v-18h-122v146l-95 200h-2v-297q0 -13 8.5 -22t21.5 -9v-18h-161v18q13 0 21 9t8 22v462q0 13 -8 21.5t-21 8.5v18h135q-2 -16 9 -37l83 -183h1v172q0 13 -8.5 21.5t-21.5 8.5v18h161v-18z" />
    <glyph glyph-name="o" unicode="o" horiz-adv-x="369" 
d="M349 293q0 -161 -40 -235.5t-125 -74.5q-84 0 -124 75.5t-40 233.5q0 285 165 285q164 0 164 -284zM237 292q0 106 -13 152.5t-40 46.5q-52 0 -52 -199q0 -123 13 -173t40 -50q17 0 28 19t17.5 69.5t6.5 134.5z" />
    <glyph glyph-name="p" unicode="p" horiz-adv-x="342" 
d="M331 371q0 -98 -43 -145.5t-121 -47.5q-5 0 -12 1v-130q0 -13 7.5 -22t21.5 -9v-18h-167v18q13 0 21 8.5t8 22.5v459q0 33 -29 33v18q57 5 128 5q88 0 137 -48t49 -145zM221 371q0 55 -15.5 81t-39.5 26q-5 0 -11 -1v-215q7 -1 11 -1q55 0 55 110z" />
    <glyph glyph-name="q" unicode="q" horiz-adv-x="364" 
d="M358 44q-8 -84 -62 -84q-42 0 -65 35q-16 -8 -47 -8q-164 0 -164 305q0 146 43.5 215.5t121.5 69.5q77 0 120.5 -70.5t43.5 -213.5q0 -179 -53 -243q9 -19 21 -19q15 0 24 20zM237 292q0 106 -13 152.5t-40 46.5q-52 0 -52 -199q0 -123 13 -173t40 -50q17 0 28 19
t17.5 69.5t6.5 134.5z" />
    <glyph glyph-name="r" unicode="r" horiz-adv-x="377" 
d="M371 0h-136q-35 119 -45 222h-35v-173q0 -31 29 -31v-18h-167v18q13 0 21 8.5t8 22.5v463q0 29 -29 29v18q70 6 153 6q181 0 181 -168q0 -102 -66 -144q16 -99 53 -210q8 -25 33 -25v-18zM239 391q0 47 -19.5 68t-47.5 21q-9 0 -17 -1v-179q5 -1 17 -1q29 0 48 22t19 70z
" />
    <glyph glyph-name="s" unicode="s" horiz-adv-x="284" 
d="M276 142q0 -73 -41.5 -113.5t-112.5 -40.5q-13 0 -36.5 5t-32.5 5q-16 0 -28 -4l-17 129l21 5q8 -28 25.5 -40.5t54.5 -12.5q27 0 43.5 17t16.5 46q0 45 -62 113q-52 57 -74 96t-22 84q0 63 38 101.5t105 38.5q15 0 36 -4t29 -4q15 0 28 6l17 -117l-20 -6q-16 39 -75 39
q-23 0 -36 -16t-13 -36q0 -32 24 -59l57 -69q38 -45 56.5 -81.5t18.5 -81.5z" />
    <glyph glyph-name="t" unicode="t" horiz-adv-x="353" 
d="M347 450l-19 -6q-7 17 -15 24t-27 7h-55v-426q0 -13 8.5 -22t21.5 -9v-18h-169v18q13 0 21.5 9t8.5 22v426h-57q-32 0 -41 -30l-18 6l22 115q14 -7 39 -7h222q21 0 35 8z" />
    <glyph glyph-name="u" unicode="u" horiz-adv-x="395" 
d="M380 541q-29 0 -29 -29v-407q0 -31 6 -45q-75 -75 -157 -75q-84 0 -163 76q6 16 6 44v407q0 29 -28 29v18h165v-18q-13 0 -21 -8t-8 -21v-390q0 -24 14 -39t37 -15q22 0 36 16t14 38v390q0 13 -10 21t-23 8v18h161v-18z" />
    <glyph glyph-name="v" unicode="v" horiz-adv-x="375" 
d="M369 541q-22 0 -26 -23l-87 -518h-135l-89 517q-5 24 -26 24v18h155v-18q-21 0 -21 -17q0 -4 2 -20l46 -368h5l49 368q2 16 2 18q0 19 -21 19v18h146v-18z" />
    <glyph glyph-name="w" unicode="w" horiz-adv-x="520" 
d="M509 541q-24 0 -27 -27l-68 -514h-99l-50 199h-6l-49 -199h-100l-71 514q-3 27 -27 27v18h156v-18q-24 0 -24 -18q0 -5 2 -27l30 -318h6l63 220h37l62 -220h6l30 323q1 11 1 21q0 19 -24 19v18h152v-18z" />
    <glyph glyph-name="x" unicode="x" horiz-adv-x="375" 
d="M365 0h-165v19q20 0 20 16q0 7 -4 21l-33 122h-2l-34 -123q-4 -16 -4 -19q0 -17 22 -17v-19h-155v19q20 0 32 29l90 237l-86 227q-12 29 -33 29v18h167v-18q-22 0 -22 -14q0 -5 4 -21l33 -124h2l32 124q3 12 3 17q0 18 -21 18v18h153v-18q-21 0 -31 -29l-86 -233l86 -231
q11 -29 32 -29v-19z" />
    <glyph glyph-name="y" unicode="y" horiz-adv-x="374" 
d="M368 541q-19 0 -26 -22l-101 -315v-155q0 -13 8.5 -22t21.5 -9v-18h-169v18q30 0 30 31v155l-97 313q-7 24 -29 24v18h164v-18q-21 0 -21 -14q0 -7 3 -22l41 -188h2l43 190q2 12 2 17q0 17 -23 17v18h151v-18z" />
    <glyph glyph-name="z" unicode="z" horiz-adv-x="318" 
d="M310 109l-22 -115q-12 6 -38 6h-230l-12 26l165 449h-105q-25 0 -38 -28l-19 7l23 112q14 -7 39 -7h215l15 -28q-3 -12 -37 -106.5l-75 -209l-47 -130.5h104q30 0 43 30z" />
    <glyph glyph-name="braceleft" unicode="{" horiz-adv-x="300" 
d="M270 -52q-175 0 -175 125v178q0 34 -8.5 50t-36.5 26v46q27 7 36 22.5t9 52.5v180q0 125 175 125v-47q-41 -5 -58.5 -20t-17.5 -51v-186q0 -36 -17 -63t-49 -35v-1q32 -8 49 -34.5t17 -62.5v-187q0 -37 18 -52t58 -20v-46z" />
    <glyph glyph-name="bar" unicode="|" horiz-adv-x="265" 
d="M175 -52h-85v805h85v-805z" />
    <glyph glyph-name="braceright" unicode="}" horiz-adv-x="300" 
d="M250 327q-28 -10 -36 -26t-8 -50v-178q0 -125 -176 -125v46q41 5 59 20t18 52v187q0 36 17 62.5t49 34.5v1q-32 8 -49 35t-17 63v186q0 36 -18 51t-59 20v47q176 0 176 -125v-180q0 -37 8.5 -52.5t35.5 -22.5v-46z" />
    <glyph glyph-name="asciitilde" unicode="~" horiz-adv-x="444" 
d="M395 443q0 -48 -28 -89t-69 -41q-12 0 -24 2t-27 7l-22.5 7.5t-26.5 10.5t-23 10q-16 8 -32 8q-15 0 -27 -11.5t-12 -31.5h-55q0 53 31 90.5t69 37.5q43 0 123 -38q12 -7 28 -7q15 0 27.5 13t12.5 32h55z" />
    <glyph glyph-name="uni007F" horiz-adv-x="0" 
 />
    <glyph glyph-name="uni00A0" unicode="&#xa0;" horiz-adv-x="140" 
 />
    <glyph glyph-name="exclamdown" unicode="&#xa1;" horiz-adv-x="218" 
d="M166 649q0 -23 -17.5 -41t-40.5 -18t-40.5 18t-17.5 41t17.5 40.5t40.5 17.5t40.5 -17.5t17.5 -40.5zM190 0h-162v18q18 0 20 46l23 435h78l21 -435q2 -46 20 -46v-18z" />
    <glyph glyph-name="cent" unicode="&#xa2;" horiz-adv-x="412" 
d="M364 212l-24 -126q-12 4 -20 4t-27 -3t-28 -3v-115h-62v121q-155 43 -155 265q0 108 42 174t113 83v118h62v-113q42 -2 51 -2q12 0 26 3l20 -122l-16 -6q-18 33 -69 33q-46 0 -76 -43.5t-30 -124.5q0 -175 108 -175q31 0 47 8t23 28z" />
    <glyph glyph-name="sterling" unicode="&#xa3;" horiz-adv-x="396" 
d="M376 139l-30 -145q-82 13 -142 13q-88 0 -184 -12v103l16 2q23 3 41 39t18 111q0 24 -3 55h-65v82h57q-12 120 -12 162q0 73 42 115.5t115 42.5q24 0 49 -5.5t29 -5.5q17 0 29 4l21 -135l-21 -6q-23 51 -80 51q-63 0 -63 -71q0 -59 10 -152h104v-82h-96q3 -35 3 -59
q0 -94 -39 -133h1q26 7 84 7q11 0 34.5 -3.5t34.5 -3.5q15 0 27 31z" />
    <glyph glyph-name="yen" unicode="&#xa5;" horiz-adv-x="445" 
d="M417 680q-24 0 -31 -28l-89 -348h89v-48h-103v-1v-42h103v-47h-103v-108q0 -16 9 -27.5t24 -11.5v-19h-189v19q15 0 24.5 10.5t9.5 28.5v108h-101v47h101v42v1h-101v48h88l-86 346q-8 30 -34 30v19h186v-19q-11 0 -17 -6t-6 -13q0 -8 3 -26l35 -227h1l41 233q2 12 2 16
q0 10 -7.5 16.5t-19.5 6.5v19h171v-19z" />
    <glyph glyph-name="brokenbar" unicode="&#xa6;" horiz-adv-x="265" 
d="M175 405h-85v348h85v-348zM175 -52h-85v343h85v-343z" />
    <glyph glyph-name="section" unicode="&#xa7;" horiz-adv-x="406" 
d="M361 314q0 -59 -53 -96q23 -22 35 -48t12 -72q0 -65 -46.5 -106.5t-119.5 -41.5q-24 0 -56.5 9.5t-39.5 9.5q-14 0 -26 -6l-12 141l23 5q24 -56 88 -56q61 0 61 45q0 22 -8 35.5t-31 34.5l-73 56q-37 32 -53.5 58.5t-16.5 61.5q0 51 54 94q-46 44 -46 115
q0 65 45.5 108.5t120.5 43.5q27 0 56 -8.5t33 -8.5q18 0 30 4l16 -141l-22 -6q-24 57 -90 57q-63 0 -63 -45q0 -30 40 -63l89 -73q53 -44 53 -107zM245 303q0 13 -12 23l-54 45q-13 -9 -13 -19q0 -14 10 -21l59 -48q10 10 10 20z" />
    <glyph glyph-name="dieresis" unicode="&#xa8;" 
d="M301 664q0 -18 -13.5 -31t-31.5 -13t-30.5 13t-12.5 31t12.5 31t30.5 13t31.5 -13t13.5 -31zM143 664q0 -18 -13 -31t-31 -13t-31.5 13t-13.5 31t13.5 31t31.5 13t31 -13t13 -31z" />
    <glyph glyph-name="copyright" unicode="&#xa9;" horiz-adv-x="836" 
d="M776 350q0 -148 -105 -253t-253 -105t-253 105t-105 253t104.5 252.5t253.5 104.5t253.5 -104.5t104.5 -252.5zM722 350q0 127 -89.5 218t-215.5 91t-215.5 -91t-89.5 -218t89.5 -219t215.5 -92t215.5 92t89.5 219zM518 216l-18 -102q-6 3 -20 3q-1 0 -16 -2.5t-30 -2.5
q-78 0 -118.5 65t-40.5 183q0 116 41 177t116 61q8 0 25 -2t22 -2q3 0 11 2t9 2l16 -98l-17 -4q-10 27 -50 27q-75 0 -75 -163q0 -98 19.5 -135.5t60.5 -37.5q37 0 47 34z" />
    <glyph glyph-name="ordfeminine" unicode="&#xaa;" horiz-adv-x="314" 
d="M257 428h-71q-4 10 -4 20h-1q-22 -26 -53 -26q-33 0 -51 21t-18 57q0 75 114 109v8q0 34 -41 34q-32 0 -41 -26l-17 3l12 76q6 -3 18 -3q3 0 19.5 3t34.5 3q45 0 68 -20.5t23 -57.5v-158q0 -24 8 -43zM259 314h-196v56h196v-56zM173 507v49q-43 -13 -43 -47
q0 -12 6.5 -18.5t14.5 -6.5t15 6.5t7 16.5z" />
    <glyph glyph-name="guillemotleft" unicode="&#xab;" horiz-adv-x="395" 
d="M340 406l-65 -110l62 -106h-90l-58 103v8l61 105h90zM206 406l-66 -110l63 -106h-90l-58 103v8l60 105h91z" />
    <glyph glyph-name="logicalnot" unicode="&#xac;" horiz-adv-x="560" 
d="M505 155h-78v169h-372v76h450v-245z" />
    <glyph glyph-name="registered" unicode="&#xae;" horiz-adv-x="504" 
d="M444 514q0 -83 -55 -139t-141 -56q-85 0 -136.5 53.5t-51.5 141.5q0 85 55.5 139t134.5 54q81 0 137.5 -54t56.5 -139zM406 514q0 65 -46 111.5t-110 46.5t-107 -45.5t-43 -112.5q0 -70 41.5 -114t106.5 -44q67 0 112.5 47t45.5 111zM336 404h-62q-13 33 -17 89h-15v-54
v-15q0 -9 14 -11v-9h-26h-17h-30v9q13 2 13 11v12v172q0 8 -14 11v8q36 3 64 3q37 0 58.5 -17t21.5 -50q0 -40 -29 -56q6 -40 23 -85q2 -7 16 -9v-9zM277 562q0 33 -30 33h-5v-67h5q30 0 30 34z" />
    <glyph glyph-name="macron" unicode="&#xaf;" 
d="M271 643h-185v47h185v-47z" />
    <glyph glyph-name="degree" unicode="&#xb0;" horiz-adv-x="236" 
d="M208 616q0 -36 -26.5 -62t-63.5 -26t-63.5 26t-26.5 62t26.5 63t63.5 27t63.5 -27t26.5 -63zM159 617q0 16 -12 27.5t-29 11.5q-18 0 -29 -11t-11 -28t11.5 -29t28.5 -12t29 12t12 29z" />
    <glyph glyph-name="plusminus" unicode="&#xb1;" horiz-adv-x="444" 
d="M394 306h-126v-156h-90v156h-128v84h128v154h90v-154h126v-84zM394 30h-344v80h344v-80z" />
    <glyph glyph-name="uni00B2" unicode="&#xb2;" horiz-adv-x="230" 
d="M224 425l-20 -80q-15 6 -27 6h-167q0 57 16 96t60 85q46 47 46 82q0 30 -40 30q-34 0 -49 -25l-20 3l16 80q9 -3 23 -3q7 0 21.5 2.5t25.5 2.5q106 0 106 -86q0 -26 -9.5 -48.5t-20.5 -35.5t-35 -39q-46 -49 -53 -84h82q17 0 25 18z" />
    <glyph glyph-name="uni00B3" unicode="&#xb3;" horiz-adv-x="230" 
d="M214 451q0 -51 -30 -78.5t-76 -27.5q-15 0 -34 3t-22 3q-7 0 -22 -4l-14 76l20 4q14 -24 47 -24q49 0 49 50q0 28 -13.5 40.5t-30.5 12.5h-22v51h24q39 0 39 48q0 39 -45 39q-28 0 -44 -24l-19 5l15 77q10 -4 21 -4q3 0 21 2t34 2q40 0 69.5 -23.5t29.5 -66.5
q0 -51 -43 -78q46 -18 46 -83z" />
    <glyph glyph-name="acute" unicode="&#xb4;" 
d="M247 707l-80 -80h-56l52 80h84z" />
    <glyph glyph-name="mu" unicode="&#xb5;" horiz-adv-x="387" 
d="M347 0h-90v24q-32 -31 -67 -31q-36 0 -64 18l5 -148l-91 -24v582h91v-273q0 -73 68 -73q38 0 59 32v314h89v-421z" />
    <glyph glyph-name="paragraph" unicode="&#xb6;" horiz-adv-x="531" 
d="M481 0h-214q-92 0 -159.5 89t-67.5 264q0 179 66.5 263t160.5 84h214v-54h-65v-592h65v-54zM345 53v590h-43v-590h43z" />
    <glyph glyph-name="periodcentered" unicode="&#xb7;" horiz-adv-x="216" 
d="M166 325q0 -23 -17.5 -40t-40.5 -17t-40.5 17t-17.5 40t17.5 41t40.5 18t40.5 -18t17.5 -41z" />
    <glyph glyph-name="cedilla" unicode="&#xb8;" 
d="M273 -95q0 -57 -93 -57q-37 0 -74 10l9 36q17 -9 50 -9q39 0 39 21q0 27 -52 22l-16 14l16 67h39l-8 -42v-1q90 0 90 -61z" />
    <glyph glyph-name="uni00B9" unicode="&#xb9;" horiz-adv-x="230" 
d="M190 350h-117v15q17 2 17 13v226l-63 -7v47q74 9 98 55h51q-5 -17 -5 -29v-291q0 -11 19 -14v-15z" />
    <glyph glyph-name="ordmasculine" unicode="&#xba;" horiz-adv-x="314" 
d="M263 570q0 -72 -28 -109.5t-79 -37.5q-106 0 -106 146q0 68 27.5 104.5t79.5 36.5q47 0 76.5 -37.5t29.5 -102.5zM254 314h-196v56h196v-56zM186 569q0 77 -30 77q-31 0 -31 -77q0 -48 8 -64.5t24 -16.5q29 0 29 81z" />
    <glyph glyph-name="guillemotright" unicode="&#xbb;" horiz-adv-x="395" 
d="M340 293l-58 -103h-90l62 106l-65 110h90l61 -105v-8zM206 293l-58 -103h-90l62 106l-65 110h90l61 -105v-8z" />
    <glyph glyph-name="onequarter" unicode="&#xbc;" horiz-adv-x="548" 
d="M200 344h-117v16q17 2 17 14v228l-64 -6v46q74 9 98 57h52q-5 -17 -5 -29v-296q0 -11 19 -14v-16zM476 699l-307 -699h-87l308 699h86zM530 126l-17 -66h-28v-30q0 -12 16 -15v-16h-112v16q15 3 15 15v30h-99l-17 38l106 256h96q-5 -14 -5 -33v-200h5q29 0 40 5zM404 121
v112l-41 -112h41z" />
    <glyph glyph-name="onehalf" unicode="&#xbd;" horiz-adv-x="548" 
d="M192 344h-117v16q18 2 18 14v228l-64 -6v46q74 9 98 57h51q-4 -14 -4 -29v-296q0 -12 18 -14v-16zM452 699l-307 -699h-87l308 699h86zM515 76l-19 -82q-12 6 -27 6h-161q0 95 77 185q39 48 39 85q0 30 -40 30q-33 0 -48 -26l-16 4l16 82q9 -3 22 -3q9 0 22 2.5t24 2.5
q104 0 104 -88q0 -63 -60 -128q-43 -46 -51 -84h79q17 0 23 18z" />
    <glyph glyph-name="threequarters" unicode="&#xbe;" horiz-adv-x="548" 
d="M231 449q0 -52 -30.5 -79.5t-76.5 -27.5q-15 0 -34 3t-22 3q-7 0 -22 -4l-14 77l20 4q13 -24 47 -24q50 0 50 50q0 28 -13.5 41t-30.5 13h-22v51h24q37 0 37 48q0 39 -44 39q-27 0 -43 -24l-19 5l14 78q15 -6 21 -6q3 0 20.5 3t33.5 3q40 0 69 -23.5t29 -67.5
q0 -53 -40 -78q46 -18 46 -84zM478 699l-306 -699h-87l308 699h85zM530 126l-17 -66h-28v-30q0 -12 16 -15v-16h-112v16q15 3 15 15v30h-99l-17 38l106 256h96q-5 -14 -5 -33v-200h5q29 0 40 5zM404 121v112l-41 -112h41z" />
    <glyph glyph-name="questiondown" unicode="&#xbf;" horiz-adv-x="342" 
d="M236 647q0 -23 -17.5 -41t-40.5 -18t-40.5 18t-17.5 41t17.5 40.5t40.5 17.5t40.5 -17.5t17.5 -40.5zM317 135l-23 -143q-9 4 -34 4q-5 0 -31 -4.5t-45 -4.5q-72 0 -115.5 37.5t-43.5 110.5q0 72 80 169q46 55 46 144q0 29 -28 29v23h119q7 -28 7 -64q0 -99 -45 -166
q-26 -37 -34 -49.5t-15.5 -33t-7.5 -43.5q0 -55 64 -55q63 0 83 52z" />
    <glyph glyph-name="Agrave" unicode="&#xc0;" horiz-adv-x="441" 
d="M433 0h-174v19q24 0 24 21q0 27 -7 71q-22 -11 -57 -11q-37 0 -61 11q-9 -57 -9 -71q0 -21 24 -21v-19h-165v19q22 0 27 28l92 591q2 12 2 21q0 21 -18 21v19h219v-19q-19 0 -19 -20q0 -5 2 -23l90 -588q5 -30 30 -30v-19zM264 216l-43 360h-7l-42 -360q18 -11 48 -11
q26 0 44 11zM272 738h-55l-81 80h84z" />
    <glyph glyph-name="Aacute" unicode="&#xc1;" horiz-adv-x="441" 
d="M433 0h-174v19q24 0 24 21q0 27 -7 71q-22 -11 -57 -11q-37 0 -61 11q-9 -57 -9 -71q0 -21 24 -21v-19h-165v19q22 0 27 28l92 591q2 12 2 21q0 21 -18 21v19h219v-19q-19 0 -19 -20q0 -5 2 -23l90 -588q5 -30 30 -30v-19zM264 216l-43 360h-7l-42 -360q18 -11 48 -11
q26 0 44 11zM315 818l-80 -80h-56l52 80h84z" />
    <glyph glyph-name="Acircumflex" unicode="&#xc2;" horiz-adv-x="441" 
d="M433 0h-174v19q24 0 24 21q0 27 -7 71q-22 -11 -57 -11q-37 0 -61 11q-9 -57 -9 -71q0 -21 24 -21v-19h-165v19q22 0 27 28l92 591q2 12 2 21q0 21 -18 21v19h219v-19q-19 0 -19 -20q0 -5 2 -23l90 -588q5 -30 30 -30v-19zM264 216l-43 360h-7l-42 -360q18 -11 48 -11
q26 0 44 11zM316 738h-62l-34 46l-34 -46h-61l61 80h68z" />
    <glyph glyph-name="Atilde" unicode="&#xc3;" horiz-adv-x="441" 
d="M433 0h-174v19q24 0 24 21q0 27 -7 71q-22 -11 -57 -11q-37 0 -61 11q-9 -57 -9 -71q0 -21 24 -21v-19h-165v19q22 0 27 28l92 591q2 12 2 21q0 21 -18 21v19h219v-19q-19 0 -19 -20q0 -5 2 -23l90 -588q5 -30 30 -30v-19zM264 216l-43 360h-7l-42 -360q18 -11 48 -11
q26 0 44 11zM321 811q-8 -72 -60 -72q-17 0 -44.5 11t-36.5 11q-19 0 -24 -23h-34q2 31 19 52t44 21q19 0 43 -11t32 -11q20 0 25 22h36z" />
    <glyph glyph-name="Adieresis" unicode="&#xc4;" horiz-adv-x="441" 
d="M433 0h-174v19q24 0 24 21q0 27 -7 71q-22 -11 -57 -11q-37 0 -61 11q-9 -57 -9 -71q0 -21 24 -21v-19h-165v19q22 0 27 28l92 591q2 12 2 21q0 21 -18 21v19h219v-19q-19 0 -19 -20q0 -5 2 -23l90 -588q5 -30 30 -30v-19zM264 216l-43 360h-7l-42 -360q18 -11 48 -11
q26 0 44 11zM341 782q0 -18 -13.5 -31t-31.5 -13t-30.5 13t-12.5 31t12.5 31t30.5 13t31.5 -13t13.5 -31zM183 782q0 -18 -13 -31t-31 -13t-31.5 13t-13.5 31t13.5 31t31.5 13t31 -13t13 -31z" />
    <glyph glyph-name="Aring" unicode="&#xc5;" horiz-adv-x="441" 
d="M433 0h-174v19q24 0 24 21q0 27 -7 71q-22 -11 -57 -11q-37 0 -61 11q-9 -57 -9 -71q0 -21 24 -21v-19h-165v19q22 0 27 28l92 591q2 12 2 21q0 21 -18 21v19h219v-19q-19 0 -19 -20q0 -5 2 -23l90 -588q5 -30 30 -30v-19zM264 216l-43 360h-7l-42 -360q18 -11 48 -11
q26 0 44 11zM284 785q0 -26 -18 -44t-44 -18t-44.5 18t-18.5 44t18.5 43.5t44.5 17.5t44 -17.5t18 -43.5zM251 784q0 14 -9 21.5t-21 7.5t-20 -8t-8 -21t8 -21t20 -8q14 0 22 8.5t8 20.5z" />
    <glyph glyph-name="AE" unicode="&#xc6;" horiz-adv-x="601" 
d="M583 130l-23 -136q-14 6 -42 6h-276v19q14 0 23 10.5t9 28.5v51q-18 -9 -54 -9q-26 0 -50 11l-12 -48q-5 -23 -5 -28q0 -16 25 -16v-19h-170v19q21 0 27 28l150 595q3 12 3 19q0 20 -20 20v18h339q31 0 45 6l28 -134l-22 -5q-10 33 -43 33h-120v-165h106q15 0 25.5 10
t10.5 24h20v-168h-20q0 15 -9 24.5t-27 9.5h-105v-234h117q34 0 51 35zM274 216v374h-2l-77 -374q18 -11 38 -11q23 0 41 11z" />
    <glyph glyph-name="Ccedilla" unicode="&#xc7;" horiz-adv-x="369" 
d="M351 131l-24 -140q-8 4 -23 4q-2 0 -26.5 -3.5t-41.5 -4.5l-6 -33v-1q90 0 90 -61q0 -57 -93 -57q-37 0 -74 10l9 36q16 -9 50 -9q39 0 39 21q0 27 -52 22l-16 14l14 61q-89 15 -134 109t-45 255q0 170 57 264.5t156 94.5q13 0 39.5 -3.5t31.5 -3.5q14 0 26 4l22 -134
l-22 -6q-16 42 -75 42q-48 0 -78.5 -65t-30.5 -193q0 -146 27.5 -206t85.5 -60q31 0 47 11t25 38z" />
    <glyph glyph-name="Egrave" unicode="&#xc8;" horiz-adv-x="382" 
d="M363 130l-24 -138q-11 8 -46 8h-271v19q14 0 23.5 10.5t9.5 28.5v584q0 38 -33 38v19h256q43 0 55 8l27 -136l-22 -7q-13 35 -43 35h-119v-165h104q16 0 26.5 10t10.5 24h20v-168h-20q0 14 -9.5 24t-27.5 10h-103v-234h116q33 0 50 36zM241 738h-55l-81 80h84z" />
    <glyph glyph-name="Eacute" unicode="&#xc9;" horiz-adv-x="382" 
d="M363 130l-24 -138q-11 8 -46 8h-271v19q14 0 23.5 10.5t9.5 28.5v584q0 38 -33 38v19h256q43 0 55 8l27 -136l-22 -7q-13 35 -43 35h-119v-165h104q16 0 26.5 10t10.5 24h20v-168h-20q0 14 -9.5 24t-27.5 10h-103v-234h116q33 0 50 36zM287 818l-80 -80h-56l52 80h84z
" />
    <glyph glyph-name="Ecircumflex" unicode="&#xca;" horiz-adv-x="382" 
d="M363 130l-24 -138q-11 8 -46 8h-271v19q14 0 23.5 10.5t9.5 28.5v584q0 38 -33 38v19h256q43 0 55 8l27 -136l-22 -7q-13 35 -43 35h-119v-165h104q16 0 26.5 10t10.5 24h20v-168h-20q0 14 -9.5 24t-27.5 10h-103v-234h116q33 0 50 36zM279 738h-62l-34 46l-34 -46h-61
l61 80h68z" />
    <glyph glyph-name="Edieresis" unicode="&#xcb;" horiz-adv-x="382" 
d="M363 130l-24 -138q-11 8 -46 8h-271v19q14 0 23.5 10.5t9.5 28.5v584q0 38 -33 38v19h256q43 0 55 8l27 -136l-22 -7q-13 35 -43 35h-119v-165h104q16 0 26.5 10t10.5 24h20v-168h-20q0 14 -9.5 24t-27.5 10h-103v-234h116q33 0 50 36zM321 782q0 -18 -13.5 -31
t-31.5 -13t-30.5 13t-12.5 31t12.5 31t30.5 13t31.5 -13t13.5 -31zM163 782q0 -18 -13 -31t-31 -13t-31.5 13t-13.5 31t13.5 31t31.5 13t31 -13t13 -31z" />
    <glyph glyph-name="Igrave" unicode="&#xcc;" horiz-adv-x="233" 
d="M211 0h-189v19q14 0 23.5 10.5t9.5 28.5v584q0 38 -33 38v19h189v-19q-33 0 -33 -38v-584q0 -39 33 -39v-19zM175 738h-55l-81 80h84z" />
    <glyph glyph-name="Iacute" unicode="&#xcd;" horiz-adv-x="233" 
d="M211 0h-189v19q14 0 23.5 10.5t9.5 28.5v584q0 38 -33 38v19h189v-19q-33 0 -33 -38v-584q0 -39 33 -39v-19zM196 818l-80 -80h-56l52 80h84z" />
    <glyph glyph-name="Icircumflex" unicode="&#xce;" horiz-adv-x="233" 
d="M211 0h-189v19q14 0 23.5 10.5t9.5 28.5v584q0 38 -33 38v19h189v-19q-33 0 -33 -38v-584q0 -39 33 -39v-19zM213 738h-62l-34 46l-34 -46h-61l61 80h68z" />
    <glyph glyph-name="Idieresis" unicode="&#xcf;" horiz-adv-x="233" 
d="M211 0h-189v19q14 0 23.5 10.5t9.5 28.5v584q0 38 -33 38v19h189v-19q-33 0 -33 -38v-584q0 -39 33 -39v-19zM240 782q0 -18 -13.5 -31t-31.5 -13t-30.5 13t-12.5 31t12.5 31t30.5 13t31.5 -13t13.5 -31zM82 782q0 -18 -13 -31t-31 -13t-31.5 13t-13.5 31t13.5 31
t31.5 13t31 -13t13 -31z" />
    <glyph glyph-name="Eth" unicode="&#xd0;" horiz-adv-x="448" 
d="M430 370q0 -196 -55.5 -286t-179.5 -90q-111 0 -163 6v19q15 0 24 9t9 23v273h-55v84h55v239q0 15 -9 24t-24 9v20q75 7 161 7q120 0 178.5 -77t58.5 -260zM304 370q0 130 -23 182t-65 52q-23 0 -29 -1v-195h63v-84h-63v-227q6 -1 23 -1q49 0 71.5 64t22.5 210z" />
    <glyph glyph-name="Ntilde" unicode="&#xd1;" horiz-adv-x="460" 
d="M438 680q-14 0 -24 -11t-10 -28v-583q0 -39 26 -39v-19h-140v180l-119 263h-2v-385q0 -17 9 -28t24 -11v-19h-180v19q15 0 24 10.5t9 28.5v583q0 18 -9.5 28.5t-23.5 10.5v19h151q0 -19 12 -46l103 -240h3v228q0 18 -9.5 28.5t-24.5 10.5v19h181v-19zM323 811
q-8 -72 -60 -72q-17 0 -44.5 11t-36.5 11q-19 0 -24 -23h-34q2 31 19 52t44 21q19 0 43 -11t32 -11q20 0 25 22h36z" />
    <glyph glyph-name="Ograve" unicode="&#xd2;" horiz-adv-x="418" 
d="M400 366q0 -202 -46 -293.5t-145 -91.5q-98 0 -144.5 93t-46.5 291q0 355 193 355q189 0 189 -354zM274 365q0 136 -15 195.5t-50 59.5q-65 0 -65 -255q0 -155 16 -219t51 -64q33 0 48 63t15 220zM243 738h-55l-81 80h84z" />
    <glyph glyph-name="Oacute" unicode="&#xd3;" horiz-adv-x="418" 
d="M400 366q0 -202 -46 -293.5t-145 -91.5q-98 0 -144.5 93t-46.5 291q0 355 193 355q189 0 189 -354zM274 365q0 136 -15 195.5t-50 59.5q-65 0 -65 -255q0 -155 16 -219t51 -64q33 0 48 63t15 220zM307 818l-80 -80h-56l52 80h84z" />
    <glyph glyph-name="Ocircumflex" unicode="&#xd4;" horiz-adv-x="418" 
d="M400 366q0 -202 -46 -293.5t-145 -91.5q-98 0 -144.5 93t-46.5 291q0 355 193 355q189 0 189 -354zM274 365q0 136 -15 195.5t-50 59.5q-65 0 -65 -255q0 -155 16 -219t51 -64q33 0 48 63t15 220zM309 738h-62l-34 46l-34 -46h-61l61 80h68z" />
    <glyph glyph-name="Otilde" unicode="&#xd5;" horiz-adv-x="418" 
d="M400 366q0 -202 -46 -293.5t-145 -91.5q-98 0 -144.5 93t-46.5 291q0 355 193 355q189 0 189 -354zM274 365q0 136 -15 195.5t-50 59.5q-65 0 -65 -255q0 -155 16 -219t51 -64q33 0 48 63t15 220zM314 811q-8 -72 -60 -72q-17 0 -44.5 11t-36.5 11q-19 0 -24 -23h-34
q2 31 19 52t44 21q19 0 43 -11t32 -11q20 0 25 22h36z" />
    <glyph glyph-name="Odieresis" unicode="&#xd6;" horiz-adv-x="418" 
d="M400 366q0 -202 -46 -293.5t-145 -91.5q-98 0 -144.5 93t-46.5 291q0 355 193 355q189 0 189 -354zM274 365q0 136 -15 195.5t-50 59.5q-65 0 -65 -255q0 -155 16 -219t51 -64q33 0 48 63t15 220zM330 782q0 -18 -13.5 -31t-31.5 -13t-30.5 13t-12.5 31t12.5 31t30.5 13
t31.5 -13t13.5 -31zM172 782q0 -18 -13 -31t-31 -13t-31.5 13t-13.5 31t13.5 31t31.5 13t31 -13t13 -31z" />
    <glyph glyph-name="multiply" unicode="&#xd7;" horiz-adv-x="437" 
d="M391 217l-63 -62l-110 110l-109 -110l-63 62l110 110l-110 110l63 63l109 -111l111 111l62 -61l-110 -112z" />
    <glyph glyph-name="Oslash" unicode="&#xd8;" horiz-adv-x="418" 
d="M400 366q0 -202 -46 -293.5t-145 -91.5q-61 0 -102 36l-27 -75l-42 15l35 100q-55 90 -55 308q0 355 193 355q49 0 87 -26l22 61l44 -13l-30 -83q66 -87 66 -293zM257 574q-14 46 -48 46q-70 0 -70 -255q0 -19 3 -109zM281 365q0 45 -5 125l-122 -331q15 -77 57 -77
q70 0 70 283z" />
    <glyph glyph-name="Ugrave" unicode="&#xd9;" horiz-adv-x="463" 
d="M443 680q-15 0 -24 -10.5t-9 -27.5v-510q0 -34 8 -58q-28 -36 -76.5 -63.5t-107.5 -27.5q-115 0 -188 91q7 20 7 58v510q0 18 -9.5 28t-23.5 10v19h187v-19q-33 0 -33 -38v-498q0 -30 17 -44.5t43 -14.5t43.5 15t17.5 44v498q0 18 -9.5 28t-23.5 10v19h181v-19zM274 738
h-55l-81 80h84z" />
    <glyph glyph-name="Uacute" unicode="&#xda;" horiz-adv-x="463" 
d="M443 680q-15 0 -24 -10.5t-9 -27.5v-510q0 -34 8 -58q-28 -36 -76.5 -63.5t-107.5 -27.5q-115 0 -188 91q7 20 7 58v510q0 18 -9.5 28t-23.5 10v19h187v-19q-33 0 -33 -38v-498q0 -30 17 -44.5t43 -14.5t43.5 15t17.5 44v498q0 18 -9.5 28t-23.5 10v19h181v-19zM326 818
l-80 -80h-56l52 80h84z" />
    <glyph glyph-name="Ucircumflex" unicode="&#xdb;" horiz-adv-x="463" 
d="M443 680q-15 0 -24 -10.5t-9 -27.5v-510q0 -34 8 -58q-28 -36 -76.5 -63.5t-107.5 -27.5q-115 0 -188 91q7 20 7 58v510q0 18 -9.5 28t-23.5 10v19h187v-19q-33 0 -33 -38v-498q0 -30 17 -44.5t43 -14.5t43.5 15t17.5 44v498q0 18 -9.5 28t-23.5 10v19h181v-19zM331 738
h-62l-34 46l-34 -46h-61l61 80h68z" />
    <glyph glyph-name="Udieresis" unicode="&#xdc;" horiz-adv-x="463" 
d="M443 680q-15 0 -24 -10.5t-9 -27.5v-510q0 -34 8 -58q-28 -36 -76.5 -63.5t-107.5 -27.5q-115 0 -188 91q7 20 7 58v510q0 18 -9.5 28t-23.5 10v19h187v-19q-33 0 -33 -38v-498q0 -30 17 -44.5t43 -14.5t43.5 15t17.5 44v498q0 18 -9.5 28t-23.5 10v19h181v-19zM358 782
q0 -18 -13.5 -31t-31.5 -13t-30.5 13t-12.5 31t12.5 31t30.5 13t31.5 -13t13.5 -31zM200 782q0 -18 -13 -31t-31 -13t-31.5 13t-13.5 31t13.5 31t31.5 13t31 -13t13 -31z" />
    <glyph glyph-name="Yacute" unicode="&#xdd;" horiz-adv-x="432" 
d="M426 680q-23 0 -31 -28l-119 -397v-197q0 -17 9 -28t24 -11v-19h-188v19q33 0 33 39v197l-114 395q-8 30 -34 30v19h186v-19q-24 0 -24 -19q0 -8 4 -28l50 -235h2l55 243q3 15 3 18q0 21 -27 21v19h171v-19zM313 818l-80 -80h-56l52 80h84z" />
    <glyph glyph-name="Thorn" unicode="&#xde;" horiz-adv-x="408" 
d="M392 364q0 -124 -51 -187.5t-140 -63.5q-14 0 -23 1v-56q0 -17 8.5 -28t24.5 -11v-19h-189v19q14 0 23.5 10.5t9.5 28.5v584q0 38 -33 38v19h189v-19q-33 0 -33 -38v-48q214 -5 214 -230zM268 364q0 130 -68 130q-17 0 -22 -1v-279q9 -1 22 -1q34 0 51 34.5t17 116.5z
" />
    <glyph glyph-name="germandbls" unicode="&#xdf;" horiz-adv-x="393" 
d="M363 343q-59 -90 -143 -90q-38 0 -92.5 30t-64.5 30q-17 0 -26 -6l-7 11q61 56 114 56q20 0 78.5 -18.5t87.5 -18.5q30 0 45 15z" />
    <glyph glyph-name="agrave" unicode="&#xe0;" horiz-adv-x="378" 
d="M372 0h-157v18q20 0 20 17q0 24 -5 52q-22 -8 -46 -8t-46 8q-6 -34 -6 -52q0 -17 20 -17v-18h-146v18q21 0 24 22l78 470q2 16 2 17q0 14 -15 14v18h188v-18q-14 0 -14 -13q0 -5 2 -19l76 -468q4 -23 25 -23v-18zM219 176l-36 273h-1l-32 -273q13 -8 35 -8q18 0 34 8z
M222 627h-55l-81 80h84z" />
    <glyph glyph-name="aacute" unicode="&#xe1;" horiz-adv-x="378" 
d="M372 0h-157v18q20 0 20 17q0 24 -5 52q-22 -8 -46 -8t-46 8q-6 -34 -6 -52q0 -17 20 -17v-18h-146v18q21 0 24 22l78 470q2 16 2 17q0 14 -15 14v18h188v-18q-14 0 -14 -13q0 -5 2 -19l76 -468q4 -23 25 -23v-18zM219 176l-36 273h-1l-32 -273q13 -8 35 -8q18 0 34 8z
M281 707l-80 -80h-56l52 80h84z" />
    <glyph glyph-name="acircumflex" unicode="&#xe2;" horiz-adv-x="378" 
d="M372 0h-157v18q20 0 20 17q0 24 -5 52q-22 -8 -46 -8t-46 8q-6 -34 -6 -52q0 -17 20 -17v-18h-146v18q21 0 24 22l78 470q2 16 2 17q0 14 -15 14v18h188v-18q-14 0 -14 -13q0 -5 2 -19l76 -468q4 -23 25 -23v-18zM219 176l-36 273h-1l-32 -273q13 -8 35 -8q18 0 34 8z
M283 627h-62l-34 46l-34 -46h-61l61 80h68z" />
    <glyph glyph-name="atilde" unicode="&#xe3;" horiz-adv-x="378" 
d="M372 0h-157v18q20 0 20 17q0 24 -5 52q-22 -8 -46 -8t-46 8q-6 -34 -6 -52q0 -17 20 -17v-18h-146v18q21 0 24 22l78 470q2 16 2 17q0 14 -15 14v18h188v-18q-14 0 -14 -13q0 -5 2 -19l76 -468q4 -23 25 -23v-18zM219 176l-36 273h-1l-32 -273q13 -8 35 -8q18 0 34 8z
M286 699q-8 -72 -60 -72q-17 0 -44.5 11t-36.5 11q-19 0 -24 -23h-34q2 31 19 52t44 21q19 0 43 -11t32 -11q20 0 25 22h36z" />
    <glyph glyph-name="adieresis" unicode="&#xe4;" horiz-adv-x="378" 
d="M372 0h-157v18q20 0 20 17q0 24 -5 52q-22 -8 -46 -8t-46 8q-6 -34 -6 -52q0 -17 20 -17v-18h-146v18q21 0 24 22l78 470q2 16 2 17q0 14 -15 14v18h188v-18q-14 0 -14 -13q0 -5 2 -19l76 -468q4 -23 25 -23v-18zM219 176l-36 273h-1l-32 -273q13 -8 35 -8q18 0 34 8z
M307 664q0 -18 -13.5 -31t-31.5 -13t-30.5 13t-12.5 31t12.5 31t30.5 13t31.5 -13t13.5 -31zM149 664q0 -18 -13 -31t-31 -13t-31.5 13t-13.5 31t13.5 31t31.5 13t31 -13t13 -31z" />
    <glyph glyph-name="aring" unicode="&#xe5;" horiz-adv-x="378" 
d="M372 0h-157v18q20 0 20 17q0 24 -5 52q-22 -8 -46 -8t-46 8q-6 -34 -6 -52q0 -17 20 -17v-18h-146v18q21 0 24 22l78 470q2 16 2 17q0 14 -15 14v18h188v-18q-14 0 -14 -13q0 -5 2 -19l76 -468q4 -23 25 -23v-18zM219 176l-36 273h-1l-32 -273q13 -8 35 -8q18 0 34 8z
M251 672q0 -26 -18 -44t-44 -18t-44.5 18t-18.5 44t18.5 43.5t44.5 17.5t44 -17.5t18 -43.5zM218 671q0 13 -9 21t-21 8t-20 -8t-8 -21t8 -21t20 -8q14 0 22 8.5t8 20.5z" />
    <glyph glyph-name="ae" unicode="&#xe6;" horiz-adv-x="515" 
d="M501 115l-22 -121q-14 6 -36 6h-233v18q12 0 21 8.5t9 22.5v37q-18 -6 -46 -6q-24 0 -42 8l-10 -40q-3 -12 -3 -17q0 -13 20 -13v-18h-153v18q20 0 26 22l132 471q3 11 3 15q0 15 -18 15v18h286q26 0 38 5l23 -114l-20 -7q-13 32 -38 32h-95v-125h83q13 0 22 9t9 20h20
v-143h-20q0 12 -8.5 20.5t-22.5 8.5h-83v-179h92q33 0 47 35zM240 171v281h-2l-66 -279q12 -7 33 -7q26 0 35 5z" />
    <glyph glyph-name="ccedilla" unicode="&#xe7;" horiz-adv-x="325" 
d="M311 109l-23 -116q-9 3 -22 3q-3 0 -19.5 -3t-29.5 -4l-7 -35v-1q90 0 90 -61q0 -57 -93 -57q-37 0 -74 10l9 36q16 -9 50 -9q39 0 39 21q0 27 -52 22l-16 14l14 62q-78 11 -117.5 87.5t-39.5 205.5q0 135 49.5 210.5t134.5 75.5q12 0 34 -2.5t27 -2.5q16 0 24 4l19 -114
l-20 -6q-10 19 -24 27t-42 8q-39 0 -65 -49.5t-26 -150.5q0 -115 23.5 -162t71.5 -47q45 0 63 42z" />
    <glyph glyph-name="egrave" unicode="&#xe8;" horiz-adv-x="325" 
d="M311 111l-21 -117q-12 6 -38 6h-235v18q13 0 21 8.5t8 22.5v463q0 13 -8 21t-21 8v18h228q25 0 39 6l22 -113l-18 -6q-9 29 -33 29h-101v-125h83q14 0 23.5 7t9.5 19h18v-139h-18q0 28 -33 28h-82v-180h99q24 0 39 32zM198 627h-55l-81 80h84z" />
    <glyph glyph-name="eacute" unicode="&#xe9;" horiz-adv-x="325" 
d="M311 111l-21 -117q-12 6 -38 6h-235v18q13 0 21 8.5t8 22.5v463q0 13 -8 21t-21 8v18h228q25 0 39 6l22 -113l-18 -6q-9 29 -33 29h-101v-125h83q14 0 23.5 7t9.5 19h18v-139h-18q0 28 -33 28h-82v-180h99q24 0 39 32zM257 707l-80 -80h-56l52 80h84z" />
    <glyph glyph-name="ecircumflex" unicode="&#xea;" horiz-adv-x="325" 
d="M311 111l-21 -117q-12 6 -38 6h-235v18q13 0 21 8.5t8 22.5v463q0 13 -8 21t-21 8v18h228q25 0 39 6l22 -113l-18 -6q-9 29 -33 29h-101v-125h83q14 0 23.5 7t9.5 19h18v-139h-18q0 28 -33 28h-82v-180h99q24 0 39 32zM253 627h-62l-34 46l-34 -46h-61l61 80h68z" />
    <glyph glyph-name="edieresis" unicode="&#xeb;" horiz-adv-x="325" 
d="M311 111l-21 -117q-12 6 -38 6h-235v18q13 0 21 8.5t8 22.5v463q0 13 -8 21t-21 8v18h228q25 0 39 6l22 -113l-18 -6q-9 29 -33 29h-101v-125h83q14 0 23.5 7t9.5 19h18v-139h-18q0 28 -33 28h-82v-180h99q24 0 39 32zM291 664q0 -18 -13.5 -31t-31.5 -13t-30.5 13
t-12.5 31t12.5 31t30.5 13t31.5 -13t13.5 -31zM133 664q0 -18 -13 -31t-31 -13t-31.5 13t-13.5 31t13.5 31t31.5 13t31 -13t13 -31z" />
    <glyph glyph-name="igrave" unicode="&#xec;" horiz-adv-x="202" 
d="M185 0h-168v18q13 0 21 8.5t8 22.5v463q0 29 -29 29v18h168v-18q-30 0 -30 -29v-463q0 -31 30 -31v-18zM166 627h-55l-81 80h84z" />
    <glyph glyph-name="iacute" unicode="&#xed;" horiz-adv-x="202" 
d="M185 0h-168v18q13 0 21 8.5t8 22.5v463q0 29 -29 29v18h168v-18q-30 0 -30 -29v-463q0 -31 30 -31v-18zM182 707l-80 -80h-56l52 80h84z" />
    <glyph glyph-name="icircumflex" unicode="&#xee;" horiz-adv-x="202" 
d="M185 0h-168v18q13 0 21 8.5t8 22.5v463q0 29 -29 29v18h168v-18q-30 0 -30 -29v-463q0 -31 30 -31v-18zM197 627h-62l-34 46l-34 -46h-61l61 80h68z" />
    <glyph glyph-name="idieresis" unicode="&#xef;" horiz-adv-x="202" 
d="M185 0h-168v18q13 0 21 8.5t8 22.5v463q0 29 -29 29v18h168v-18q-30 0 -30 -29v-463q0 -31 30 -31v-18zM225 664q0 -18 -13.5 -31t-31.5 -13t-30.5 13t-12.5 31t12.5 31t30.5 13t31.5 -13t13.5 -31zM67 664q0 -18 -13 -31t-31 -13t-31.5 13t-13.5 31t13.5 31t31.5 13
t31 -13t13 -31z" />
    <glyph glyph-name="eth" unicode="&#xf0;" horiz-adv-x="383" 
d="M369 295q0 -155 -48.5 -228t-154.5 -73q-93 0 -141 6v18q29 0 29 24v215h-46v75h46v183q0 26 -29 26v19q65 5 140 5q103 0 153.5 -62t50.5 -208zM256 295q0 184 -71 184q-4 0 -9 -0.5t-8.5 -0.5h-4.5v-146h50v-75h-50v-175q7 -1 16 -1q40 0 58.5 49.5t18.5 164.5z" />
    <glyph glyph-name="ntilde" unicode="&#xf1;" horiz-adv-x="393" 
d="M376 541q-13 0 -21 -8.5t-8 -21.5v-462q0 -31 20 -31v-18h-122v146l-95 200h-2v-297q0 -13 8.5 -22t21.5 -9v-18h-161v18q13 0 21 9t8 22v462q0 13 -8 21.5t-21 8.5v18h135q-2 -16 9 -37l83 -183h1v172q0 13 -8.5 21.5t-21.5 8.5v18h161v-18zM292 699q-8 -72 -60 -72
q-17 0 -44.5 11t-36.5 11q-19 0 -24 -23h-34q2 31 19 52t44 21q19 0 43 -11t32 -11q20 0 25 22h36z" />
    <glyph glyph-name="ograve" unicode="&#xf2;" horiz-adv-x="369" 
d="M349 293q0 -161 -40 -235.5t-125 -74.5q-84 0 -124 75.5t-40 233.5q0 285 165 285q164 0 164 -284zM237 292q0 106 -13 152.5t-40 46.5q-52 0 -52 -199q0 -123 13 -173t40 -50q17 0 28 19t17.5 69.5t6.5 134.5zM218 627h-55l-81 80h84z" />
    <glyph glyph-name="oacute" unicode="&#xf3;" horiz-adv-x="369" 
d="M349 293q0 -161 -40 -235.5t-125 -74.5q-84 0 -124 75.5t-40 233.5q0 285 165 285q164 0 164 -284zM237 292q0 106 -13 152.5t-40 46.5q-52 0 -52 -199q0 -123 13 -173t40 -50q17 0 28 19t17.5 69.5t6.5 134.5zM289 707l-80 -80h-56l52 80h84z" />
    <glyph glyph-name="ocircumflex" unicode="&#xf4;" horiz-adv-x="369" 
d="M349 293q0 -161 -40 -235.5t-125 -74.5q-84 0 -124 75.5t-40 233.5q0 285 165 285q164 0 164 -284zM237 292q0 106 -13 152.5t-40 46.5q-52 0 -52 -199q0 -123 13 -173t40 -50q17 0 28 19t17.5 69.5t6.5 134.5zM277 627h-62l-34 46l-34 -46h-61l61 80h68z" />
    <glyph glyph-name="otilde" unicode="&#xf5;" horiz-adv-x="369" 
d="M349 293q0 -161 -40 -235.5t-125 -74.5q-84 0 -124 75.5t-40 233.5q0 285 165 285q164 0 164 -284zM237 292q0 106 -13 152.5t-40 46.5q-52 0 -52 -199q0 -123 13 -173t40 -50q17 0 28 19t17.5 69.5t6.5 134.5zM282 699q-8 -72 -60 -72q-17 0 -44.5 11t-36.5 11
q-19 0 -24 -23h-34q2 31 19 52t44 21q19 0 43 -11t32 -11q20 0 25 22h36z" />
    <glyph glyph-name="odieresis" unicode="&#xf6;" horiz-adv-x="369" 
d="M349 293q0 -161 -40 -235.5t-125 -74.5q-84 0 -124 75.5t-40 233.5q0 285 165 285q164 0 164 -284zM237 292q0 106 -13 152.5t-40 46.5q-52 0 -52 -199q0 -123 13 -173t40 -50q17 0 28 19t17.5 69.5t6.5 134.5zM307 664q0 -18 -13.5 -31t-31.5 -13t-30.5 13t-12.5 31
t12.5 31t30.5 13t31.5 -13t13.5 -31zM149 664q0 -18 -13 -31t-31 -13t-31.5 13t-13.5 31t13.5 31t31.5 13t31 -13t13 -31z" />
    <glyph glyph-name="divide" unicode="&#xf7;" horiz-adv-x="437" 
d="M272 462q0 -23 -17 -40t-40 -17t-40 17t-17 40t17 39.5t40 16.5t40 -16.5t17 -39.5zM377 277h-317v91h317v-91zM272 189q0 -23 -17 -40t-40 -17t-40 17t-17 40t17 40t40 17t40 -17t17 -40z" />
    <glyph glyph-name="oslash" unicode="&#xf8;" horiz-adv-x="369" 
d="M349 293q0 -161 -40 -235.5t-125 -74.5q-55 0 -88 29l-21 -57l-33 13l27 75q-49 74 -49 249q0 285 165 285q39 0 72 -19l17 47l36 -12l-22 -61q61 -68 61 -239zM220 457q-13 34 -36 34q-52 0 -52 -199q0 -51 1 -73zM237 292q0 54 -3 93l-93 -250q12 -66 44 -66
q17 0 28 19t17.5 69.5t6.5 134.5z" />
    <glyph glyph-name="ugrave" unicode="&#xf9;" horiz-adv-x="395" 
d="M380 541q-29 0 -29 -29v-407q0 -31 6 -45q-75 -75 -157 -75q-84 0 -163 76q6 16 6 44v407q0 29 -28 29v18h165v-18q-13 0 -21 -8t-8 -21v-390q0 -24 14 -39t37 -15q22 0 36 16t14 38v390q0 13 -10 21t-23 8v18h161v-18zM235 627h-55l-81 80h84z" />
    <glyph glyph-name="uacute" unicode="&#xfa;" horiz-adv-x="395" 
d="M380 541q-29 0 -29 -29v-407q0 -31 6 -45q-75 -75 -157 -75q-84 0 -163 76q6 16 6 44v407q0 29 -28 29v18h165v-18q-13 0 -21 -8t-8 -21v-390q0 -24 14 -39t37 -15q22 0 36 16t14 38v390q0 13 -10 21t-23 8v18h161v-18zM303 706l-80 -80h-56l52 80h84z" />
    <glyph glyph-name="ucircumflex" unicode="&#xfb;" horiz-adv-x="395" 
d="M380 541q-29 0 -29 -29v-407q0 -31 6 -45q-75 -75 -157 -75q-84 0 -163 76q6 16 6 44v407q0 29 -28 29v18h165v-18q-13 0 -21 -8t-8 -21v-390q0 -24 14 -39t37 -15q22 0 36 16t14 38v390q0 13 -10 21t-23 8v18h161v-18zM288 627h-62l-34 46l-34 -46h-61l61 80h68z" />
    <glyph glyph-name="udieresis" unicode="&#xfc;" horiz-adv-x="395" 
d="M380 541q-29 0 -29 -29v-407q0 -31 6 -45q-75 -75 -157 -75q-84 0 -163 76q6 16 6 44v407q0 29 -28 29v18h165v-18q-13 0 -21 -8t-8 -21v-390q0 -24 14 -39t37 -15q22 0 36 16t14 38v390q0 13 -10 21t-23 8v18h161v-18zM319 664q0 -18 -13.5 -31t-31.5 -13t-30.5 13
t-12.5 31t12.5 31t30.5 13t31.5 -13t13.5 -31zM161 664q0 -18 -13 -31t-31 -13t-31.5 13t-13.5 31t13.5 31t31.5 13t31 -13t13 -31z" />
    <glyph glyph-name="yacute" unicode="&#xfd;" horiz-adv-x="374" 
d="M368 541q-19 0 -26 -22l-101 -315v-155q0 -13 8.5 -22t21.5 -9v-18h-169v18q30 0 30 31v155l-97 313q-7 24 -29 24v18h164v-18q-21 0 -21 -14q0 -7 3 -22l41 -188h2l43 190q2 12 2 17q0 17 -23 17v18h151v-18zM291 707l-80 -80h-56l52 80h84z" />
    <glyph glyph-name="thorn" unicode="&#xfe;" horiz-adv-x="353" 
d="M341 292q0 -100 -43 -150.5t-122 -50.5q-2 0 -10 0.5t-11 0.5v-43q0 -31 30 -31v-18h-168v18q13 0 21 8.5t8 22.5v463q0 29 -29 29v18h168v-18q-30 0 -30 -29v-36q186 0 186 -184zM233 292q0 102 -58 102q-16 0 -20 -1v-220q6 -1 20 -1q58 0 58 120z" />
    <glyph glyph-name="ydieresis" unicode="&#xff;" horiz-adv-x="374" 
d="M368 541q-19 0 -26 -22l-101 -315v-155q0 -13 8.5 -22t21.5 -9v-18h-169v18q30 0 30 31v155l-97 313q-7 24 -29 24v18h164v-18q-21 0 -21 -14q0 -7 3 -22l41 -188h2l43 190q2 12 2 17q0 17 -23 17v18h151v-18zM309 664q0 -18 -13.5 -31t-31.5 -13t-30.5 13t-12.5 31
t12.5 31t30.5 13t31.5 -13t13.5 -31zM151 664q0 -18 -13 -31t-31 -13t-31.5 13t-13.5 31t13.5 31t31.5 13t31 -13t13 -31z" />
    <glyph glyph-name="dotlessi" unicode="&#x131;" horiz-adv-x="202" 
d="M185 0h-168v18q13 0 21 8.5t8 22.5v463q0 29 -29 29v18h168v-18q-30 0 -30 -29v-463q0 -31 30 -31v-18z" />
    <glyph glyph-name="Lslash" unicode="&#x141;" horiz-adv-x="403" 
d="M391 133l-29 -140q-9 7 -55 7h-251v19q14 0 23.5 10.5t9.5 28.5v185l-81 -52v109l81 52v289q0 39 -33 39v19h189v-19q-14 0 -24.5 -11.5t-10.5 -27.5v-210l99 64v-110l-99 -63v-219h110q35 0 50 35z" />
    <glyph glyph-name="lslash" unicode="&#x142;" horiz-adv-x="335" 
d="M325 114l-24 -122q-14 8 -48 8h-218v18q13 0 21.5 9t8.5 22v141l-59 -37v85l59 39v234q0 30 -30 30v18h168v-18q-13 0 -21.5 -8.5t-8.5 -21.5v-164l85 55v-86l-85 -56v-173h91q28 0 42 32z" />
    <glyph glyph-name="OE" unicode="&#x152;" horiz-adv-x="584" 
d="M567 130l-25 -136q-14 6 -42 6h-231q-23 -11 -60 -11q-191 0 -191 376q0 175 47.5 260t145.5 85q36 0 62 -11h218q31 0 45 6l28 -134l-23 -5q-12 33 -43 33h-119v-165h104q16 0 27 10t11 24h20v-168h-20q0 14 -10 24t-28 10h-103v-234h116q38 0 51 35zM259 114v469
q-18 23 -48 23q-33 0 -49.5 -56t-16.5 -185q0 -148 15.5 -209.5t50.5 -61.5q30 0 48 20z" />
    <glyph glyph-name="oe" unicode="&#x153;" horiz-adv-x="499" 
d="M485 111l-21 -117q-14 6 -36 6h-195q-20 -8 -50 -8q-163 0 -163 300q0 276 164 276q31 0 54 -9h182q27 0 39 5l22 -112l-19 -6q-10 29 -33 29h-101v-125h86q13 0 21.5 7.5t8.5 18.5h18v-139h-18q0 12 -8 20t-22 8h-85v-180h99q24 0 39 31zM224 91v375q-13 17 -41 17
t-41.5 -44t-13.5 -147q0 -117 13.5 -166.5t42.5 -49.5q31 0 40 15z" />
    <glyph glyph-name="Scaron" unicode="&#x160;" horiz-adv-x="346" 
d="M328 182q0 -96 -47 -145.5t-131 -49.5q-20 0 -48 6t-35 6q-14 0 -29 -5l-20 151l24 7q8 -32 28.5 -48t63.5 -16q33 0 54 21.5t21 58.5q0 40 -16.5 73t-57.5 80q-59 68 -86 118t-27 105q0 77 43 122t122 45q15 0 42.5 -6t37.5 -6q18 0 30 7l21 -133l-23 -6q-20 44 -89 44
q-29 0 -45.5 -19t-16.5 -46q0 -38 28 -75l68 -86q45 -57 66.5 -102t21.5 -101zM273 818l-60 -80h-69l-62 80h62l34 -46l35 46h60z" />
    <glyph glyph-name="scaron" unicode="&#x161;" horiz-adv-x="284" 
d="M276 142q0 -73 -41.5 -113.5t-112.5 -40.5q-13 0 -36.5 5t-32.5 5q-16 0 -28 -4l-17 129l21 5q8 -28 25.5 -40.5t54.5 -12.5q27 0 43.5 17t16.5 46q0 45 -62 113q-52 57 -74 96t-22 84q0 63 38 101.5t105 38.5q15 0 36 -4t29 -4q15 0 28 6l17 -117l-20 -6q-16 39 -75 39
q-23 0 -36 -16t-13 -36q0 -32 24 -59l57 -69q38 -45 56.5 -81.5t18.5 -81.5zM246 707l-60 -80h-69l-62 80h62l34 -46l35 46h60z" />
    <glyph glyph-name="Ydieresis" unicode="&#x178;" horiz-adv-x="432" 
d="M426 680q-23 0 -31 -28l-119 -397v-197q0 -17 9 -28t24 -11v-19h-188v19q33 0 33 39v197l-114 395q-8 30 -34 30v19h186v-19q-24 0 -24 -19q0 -8 4 -28l50 -235h2l55 243q3 15 3 18q0 21 -27 21v19h171v-19zM336 782q0 -18 -13.5 -31t-31.5 -13t-30.5 13t-12.5 31
t12.5 31t30.5 13t31.5 -13t13.5 -31zM178 782q0 -18 -13 -31t-31 -13t-31.5 13t-13.5 31t13.5 31t31.5 13t31 -13t13 -31z" />
    <glyph glyph-name="Zcaron" unicode="&#x17d;" horiz-adv-x="374" 
d="M360 130l-24 -136q-12 6 -43 6h-266l-13 29l195 570h-122q-31 0 -46 -34l-23 6l25 135q16 -7 44 -7h249l15 -33l-187 -566h121q38 0 52 36zM284 818l-60 -80h-69l-62 80h62l34 -46l35 46h60z" />
    <glyph glyph-name="zcaron" unicode="&#x17e;" horiz-adv-x="318" 
d="M310 109l-22 -115q-12 6 -38 6h-230l-12 26l165 449h-105q-25 0 -38 -28l-19 7l23 112q14 -7 39 -7h215l15 -28q-3 -12 -37 -106.5l-75 -209l-47 -130.5h104q30 0 43 30zM262 707l-60 -80h-69l-62 80h62l34 -46l35 46h60z" />
    <glyph glyph-name="florin" unicode="&#x192;" horiz-adv-x="457" 
d="M417 604l-18 -6l-13.5 20.5t-16 13t-26.5 6.5q-14 0 -25.5 -10.5t-12.5 -29.5l-18 -193h71v-80h-75l-30 -330q-5 -60 -37.5 -92t-88.5 -32q-9 0 -24.5 4t-22.5 4q-14 0 -28 -6l-27 125l18 6l13.5 -21.5t15 -12.5t26.5 -7q14 0 25 11t13 30l32 321h-64v80h70l15 201
q4 60 37 92t89 32q9 0 24.5 -3.5t22.5 -3.5q13 0 27 6z" />
    <glyph glyph-name="circumflex" unicode="&#x2c6;" 
d="M273 627h-62l-34 46l-34 -46h-61l61 80h68z" />
    <glyph glyph-name="caron" unicode="&#x2c7;" 
d="M273 707l-60 -80h-69l-62 80h62l34 -46l35 46h60z" />
    <glyph glyph-name="breve" unicode="&#x2d8;" 
d="M271 694q-12 -36 -36.5 -57t-55.5 -21q-33 0 -57.5 21t-35.5 57l23 11q25 -43 70 -43q43 0 68 43z" />
    <glyph glyph-name="dotaccent" unicode="&#x2d9;" 
d="M215 669q0 -15 -10.5 -26t-25.5 -11t-25.5 11t-10.5 26t10.5 25.5t25.5 10.5t25.5 -10.5t10.5 -25.5z" />
    <glyph glyph-name="ring" unicode="&#x2da;" 
d="M241 672q0 -26 -18 -44t-44 -18t-44.5 18t-18.5 44t18.5 43.5t44.5 17.5t44 -17.5t18 -43.5zM208 671q0 13 -9 21t-21 8t-20 -8t-8 -21t8 -21t20 -8q14 0 22 8.5t8 20.5z" />
    <glyph glyph-name="ogonek" unicode="&#x2db;" horiz-adv-x="393" 
d="M294 -128q-27 -16 -89 -16q-125 0 -125 68q0 57 105 81h60q-41 -18 -57.5 -35.5t-16.5 -39.5q0 -36 48 -36q38 0 62 12z" />
    <glyph glyph-name="tilde" unicode="&#x2dc;" 
d="M278 699q-8 -72 -60 -72q-17 0 -44.5 11t-36.5 11q-19 0 -24 -23h-34q2 31 19 52t44 21q19 0 43 -11t32 -11q20 0 25 22h36z" />
    <glyph glyph-name="hungarumlaut" unicode="&#x2dd;" 
d="M332 702l-90 -75h-65l70 75h85zM178 702l-88 -75h-66l71 75h83z" />
    <glyph glyph-name="pi" unicode="&#x3c0;" horiz-adv-x="505" 
d="M473 0h-84q-84 0 -84 104v304h-117v-408h-100v408h-56v84h441v-84h-66v-295q0 -24 21 -24h45v-89z" />
    <glyph glyph-name="endash" unicode="&#x2013;" horiz-adv-x="443" 
d="M388 270h-333v86h333v-86z" />
    <glyph glyph-name="emdash" unicode="&#x2014;" horiz-adv-x="615" 
d="M560 270h-505v86h505v-86z" />
    <glyph glyph-name="quoteleft" unicode="&#x2018;" horiz-adv-x="208" 
d="M163 588q0 -26 -16.5 -41t-41.5 -15q-60 0 -60 64q0 46 28.5 80t71.5 50l18 -26q-54 -20 -63 -57q63 0 63 -55z" />
    <glyph glyph-name="quoteright" unicode="&#x2019;" horiz-adv-x="208" 
d="M163 651q0 -45 -28.5 -79t-72.5 -50l-17 25q54 20 63 57q-63 0 -63 56q0 26 16.5 41t41.5 15q60 0 60 -65z" />
    <glyph glyph-name="quotesinglbase" unicode="&#x201a;" horiz-adv-x="188" 
d="M153 35q0 -45 -28.5 -78t-72.5 -49l-17 26q54 20 63 57q-63 0 -63 55q0 24 17 40t41 16q29 0 44.5 -18t15.5 -49z" />
    <glyph glyph-name="quotedblleft" unicode="&#x201c;" horiz-adv-x="344" 
d="M299 588q0 -27 -16 -41.5t-42 -14.5q-29 0 -44.5 18.5t-15.5 49.5q0 45 29 77.5t73 48.5l15 -27q-52 -20 -61 -56q62 0 62 -55zM163 588q0 -25 -17 -40.5t-41 -15.5q-29 0 -44.5 18.5t-15.5 49.5q0 45 28 77.5t72 48.5l18 -26q-54 -20 -63 -57q63 0 63 -55z" />
    <glyph glyph-name="quotedblright" unicode="&#x201d;" horiz-adv-x="344" 
d="M299 650q0 -45 -28 -78.5t-72 -49.5l-16 26q52 20 61 56q-62 0 -62 56q0 26 16 41t42 15q59 0 59 -66zM163 650q0 -45 -28.5 -78.5t-72.5 -49.5l-17 25q54 20 63 57q-63 0 -63 56q0 25 16.5 40.5t41.5 15.5q29 0 44.5 -17.5t15.5 -48.5z" />
    <glyph glyph-name="quotedblbase" unicode="&#x201e;" horiz-adv-x="324" 
d="M289 34q0 -45 -28 -77.5t-72 -48.5l-16 27q52 20 61 56q-62 0 -62 55q0 25 16 40.5t42 15.5q29 0 44 -18.5t15 -49.5zM153 35q0 -45 -28.5 -78t-72.5 -49l-17 26q54 20 63 57q-63 0 -63 55q0 24 16.5 40t41.5 16q29 0 44.5 -18t15.5 -49z" />
    <glyph glyph-name="dagger" unicode="&#x2020;" horiz-adv-x="415" 
d="M380 429h-13q-2 20 -30 25l-96 15l27 -149l-35 -369h-50l-35 369l27 149l-97 -15q-27 -5 -29 -24h-14v51v22v63h14q2 -19 29 -23l97 -16l-19 130q-4 27 -23 29v13h62h36h52v-13q-21 -3 -24 -29l-18 -130l96 16q15 2 21.5 6.5t8.5 16.5h13v-63v-22v-52z" />
    <glyph glyph-name="daggerdbl" unicode="&#x2021;" horiz-adv-x="415" 
d="M380 87h-13q-2 19 -30 24l-96 17l18 -134q3 -28 23 -30v-13h-51h-36h-62v13q19 2 23 30l19 134l-97 -17q-27 -5 -29 -23h-14v136h14q2 -19 29 -23l97 -16l-28 146l28 138l-97 -15q-27 -5 -29 -24h-14v136h14q2 -19 29 -23l97 -16l-19 130q-4 27 -23 29v13h150v-13
q-21 -3 -24 -29l-18 -130l96 16q15 2 21.5 6.5t8.5 16.5h13v-137h-13q-2 20 -30 25l-96 15l28 -138l-28 -146l96 16q15 2 21.5 6.5t8.5 16.5h13v-137z" />
    <glyph glyph-name="bullet" unicode="&#x2022;" horiz-adv-x="343" 
d="M288 340q0 -48 -34 -82t-82 -34t-82.5 34t-34.5 82t34.5 82.5t82.5 34.5t82 -34.5t34 -82.5z" />
    <glyph glyph-name="ellipsis" unicode="&#x2026;" horiz-adv-x="550" 
d="M515 51q0 -23 -17.5 -40.5t-40.5 -17.5t-40.5 17.5t-17.5 40.5t17.5 40.5t40.5 17.5t40.5 -17.5t17.5 -40.5zM333 51q0 -23 -17.5 -40.5t-40.5 -17.5t-40.5 17.5t-17.5 40.5t17.5 40.5t40.5 17.5t40.5 -17.5t17.5 -40.5zM151 51q0 -23 -17.5 -40.5t-40.5 -17.5
t-40.5 17.5t-17.5 40.5t17.5 40.5t40.5 17.5t40.5 -17.5t17.5 -40.5z" />
    <glyph glyph-name="perthousand" unicode="&#x2030;" horiz-adv-x="964" 
d="M924 179q0 -90 -34.5 -138.5t-97.5 -48.5t-96 48t-33 139q0 85 34.5 128.5t95.5 43.5q59 0 95 -44t36 -128zM302 536q0 -90 -34.5 -138.5t-97.5 -48.5t-96.5 48.5t-33.5 139.5q0 85 34.5 128t96.5 43q59 0 95 -44t36 -128zM487 711l-227 -719h-77l226 719h78zM634 179
q0 -90 -34.5 -138.5t-97.5 -48.5t-96 48t-33 139q0 85 34.5 128.5t95.5 43.5q59 0 95 -44t36 -128zM834 178q0 57 -10 79.5t-32 22.5t-31.5 -22t-9.5 -79q0 -65 10 -90.5t32 -25.5q41 0 41 115zM212 535q0 57 -10 79.5t-32 22.5t-31.5 -22t-9.5 -79q0 -65 10 -90.5t32 -25.5
q41 0 41 115zM545 178q0 57 -10 79.5t-33 22.5q-22 0 -31.5 -22t-9.5 -79q0 -65 10 -90.5t32 -25.5q42 0 42 115z" />
    <glyph glyph-name="guilsinglleft" unicode="&#x2039;" horiz-adv-x="261" 
d="M206 406l-66 -110l63 -106h-90l-58 103v8l60 105h91z" />
    <glyph glyph-name="guilsinglright" unicode="&#x203a;" horiz-adv-x="261" 
d="M206 293l-58 -103h-90l62 106l-65 110h90l61 -105v-8z" />
    <glyph glyph-name="fraction" unicode="&#x2044;" horiz-adv-x="444" 
d="M419 699l-307 -699h-87l308 699h86z" />
    <glyph glyph-name="Euro" unicode="&#x20ac;" horiz-adv-x="404" 
d="M386 138l-25 -140q-11 3 -23 3q-1 0 -22 -3.5t-41 -3.5q-181 0 -203 280h-62l18 54h41q0 39 1 62h-60l18 53h45q13 129 65 196.5t137 67.5q11 0 33 -1.5t29 -1.5q16 0 25 3l22 -135l-21 -5q-8 21 -23 30.5t-43 9.5q-82 0 -99 -164h153l-18 -53h-138q-1 -20 -1 -62h157
l-18 -54h-137q6 -98 31 -138t74 -40q29 0 41.5 10t21.5 38z" />
    <glyph glyph-name="trademark" unicode="&#x2122;" horiz-adv-x="502" 
d="M442 453h-27h-19h-31v10q11 0 11 13v13v98l-42 -105h-5l-45 105v-98v-13q0 -13 13 -13v-10h-26h-18h-29v10q11 0 11 13v13v175v13q0 13 -11 13v9h55h16q-3 -11 0 -18l38 -93h1l34 90q5 17 4 21h18h52v-9q-13 0 -13 -13v-15v-173v-13q0 -13 13 -13v-10zM209 649l-8 -2
q-7 14 -21 14h-30v-172v-13q0 -5 4.5 -9t9.5 -4v-10h-27h-20h-30v10q12 0 12 13v13v172h-30q-15 0 -20 -14l-9 2l12 54q16 -4 18 -4h111q7 0 17 5z" />
    <glyph glyph-name="Omega" unicode="&#x2126;" horiz-adv-x="707" 
d="M661 344q0 -64 -26 -120.5t-51 -83t-49 -43.5h114l-13 -97h-225v107q6 2 16.5 6.5t36.5 23t45.5 42.5t36 68t16.5 97q0 106 -56.5 169t-151.5 63t-152 -63t-57 -169q0 -53 15.5 -97.5t37.5 -69t44 -41.5t38 -23l15 -6v-107h-224l-13 97h114q-17 12 -35 29.5t-40.5 48
t-36.5 75t-14 94.5q0 141 82 229.5t225 88.5t225.5 -88t82.5 -230z" />
    <glyph glyph-name="partialdiff" unicode="&#x2202;" horiz-adv-x="507" 
d="M467 231q0 -114 -56.5 -175t-152.5 -61q-218 0 -218 215q0 93 58.5 149t140.5 56q42 0 98 -21q-74 126 -227 180l40 72q99 -28 172.5 -95t109 -150t35.5 -170zM376 225q0 52 -12 83q-45 31 -116 31q-47 0 -82 -35t-35 -94q0 -62 33.5 -99t92.5 -37q54 0 86.5 43.5
t32.5 107.5z" />
    <glyph glyph-name="Delta" unicode="&#x2206;" horiz-adv-x="642" 
d="M592 0h-542l272 646zM446 90l-147 355l-140 -354z" />
    <glyph glyph-name="product" unicode="&#x220f;" horiz-adv-x="732" 
d="M682 0h-260v84h80v493h-270v-493h80v-84h-262v84h80v493h-80v84h632v-84h-79v-493h79v-84z" />
    <glyph glyph-name="summation" unicode="&#x2211;" horiz-adv-x="504" 
d="M474 86l-21 -86h-412l-11 71l210 259l-210 260l10 71h413l19 -85h-311l196 -245l-197 -245h314z" />
    <glyph glyph-name="minus" unicode="&#x2212;" horiz-adv-x="437" 
d="M377 283h-317v91h317v-91z" />
    <glyph glyph-name="radical" unicode="&#x221a;" horiz-adv-x="538" 
d="M480 669l-238 -669h-57l-80 305h-47v56h121l45 -204l169 512h87z" />
    <glyph glyph-name="infinity" unicode="&#x221e;" horiz-adv-x="690" 
d="M645 343q0 -58 -35 -93t-92 -35q-88 0 -173 78q-89 -78 -172 -78q-57 0 -92.5 34.5t-35.5 90.5q0 54 37 89.5t96 35.5q46 0 84 -20.5t83 -58.5q88 79 166 79q60 0 97 -33t37 -89zM561 338q0 22 -14.5 37t-39.5 15q-49 0 -100 -51q56 -50 96 -50q27 0 42.5 13.5t15.5 35.5
zM284 339q-19 18 -29 26t-29 16.5t-40 8.5q-26 0 -41.5 -17t-15.5 -35q0 -21 17.5 -35t40.5 -14q19 0 38 9t29 16.5t30 24.5z" />
    <glyph glyph-name="integral" unicode="&#x222b;" horiz-adv-x="341" 
d="M311 664l-17 -81h-2q-18 15 -34 15q-43 0 -43 -59v-585q0 -54 -33 -90t-83 -36q-34 0 -69 13l16 81h2q15 -15 32 -15q44 0 44 56v585q0 60 34 94.5t82 34.5q32 0 71 -13z" />
    <glyph glyph-name="approxequal" unicode="&#x2248;" horiz-adv-x="559" 
d="M514 453q-27 -48 -64.5 -73t-75.5 -25t-97.5 23t-87.5 23q-24 0 -39.5 -15t-30.5 -43l-74 49q69 96 150 96q35 0 97 -21t80 -21q40 0 74 55zM514 289q-27 -48 -64 -72.5t-76 -24.5q-38 0 -97.5 22.5t-87.5 22.5q-24 0 -39.5 -15t-30.5 -43l-74 49q69 96 150 96
q35 0 97 -21t80 -21q25 0 41.5 14t32.5 40z" />
    <glyph glyph-name="notequal" unicode="&#x2260;" horiz-adv-x="482" 
d="M432 238h-219l-72 -114l-63 36l47 78h-75v75h123l34 54h-157v75h203l73 116l63 -36l-50 -80h93v-75h-139l-34 -54h173v-75z" />
    <glyph glyph-name="lessequal" unicode="&#x2264;" horiz-adv-x="445" 
d="M395 162l-344 155v76l344 153v-94l-220 -97l220 -98v-95zM395 30h-345v80h345v-80z" />
    <glyph glyph-name="greaterequal" unicode="&#x2265;" horiz-adv-x="445" 
d="M394 317l-344 -155v95l220 98l-220 97v94l344 -153v-76zM395 30h-345v80h345v-80z" />
    <glyph glyph-name="lozenge" unicode="&#x25ca;" horiz-adv-x="471" 
d="M436 345l-176 -344h-50l-175 344l175 336h50zM333 343l-98 190l-97 -190l97 -194z" />
    <glyph glyph-name="uniFB01" unicode="&#xfb01;" horiz-adv-x="393" 
d="M363 343q-59 -90 -143 -90q-38 0 -92.5 30t-64.5 30q-17 0 -26 -6l-7 11q61 56 114 56q20 0 78.5 -18.5t87.5 -18.5q30 0 45 15z" />
    <glyph glyph-name="uniFB02" unicode="&#xfb02;" horiz-adv-x="393" 
d="M363 343q-59 -90 -143 -90q-38 0 -92.5 30t-64.5 30q-17 0 -26 -6l-7 11q61 56 114 56q20 0 78.5 -18.5t87.5 -18.5q30 0 45 15z" />
    <glyph glyph-name="typedesign.com" horiz-adv-x="890" 
d="M790 350q0 -137 -101 -235t-243 -98q-143 0 -244.5 98t-101.5 235t101.5 235t244.5 98q142 0 243 -98t101 -235zM756 347q0 120 -83 206t-211 96v-598q44 0 77 13v245h215q2 20 2 38zM721 178v104h-150v-104h150zM322 408v104h-149v-104h149zM426 51v596q-45 0 -75 -12
v-480q-62 29 -96 80t-34 116q0 13 3 37h-89q-2 -26 -2 -37q0 -124 86 -207.5t207 -92.5zM664 388h-125v157q42 -10 81.5 -58.5t43.5 -98.5zM693 204h-96v53h96v-53zM296 433h-96v54h96v-54z" />
    <glyph glyph-name="uni0410" unicode="&#x410;" horiz-adv-x="441" 
d="M433 0h-174v19q24 0 24 21q0 27 -7 71q-22 -11 -57 -11q-37 0 -61 11q-9 -57 -9 -71q0 -21 24 -21v-19h-165v19q22 0 27 28l92 591q2 12 2 21q0 21 -18 21v19h219v-19q-19 0 -19 -20q0 -5 2 -23l90 -588q5 -30 30 -30v-19zM264 216l-43 360h-7l-42 -360q18 -11 48 -11
q26 0 44 11z" />
    <glyph glyph-name="uni0411" unicode="&#x411;" horiz-adv-x="397" 
d="M181 382q-10 0 -16 -1v-279q7 -1 16 -1q31 0 49.5 35.5t18.5 105.5q0 140 -68 140zM43 641q0 18 -9.5 28.5t-23.5 10.5v19h264q44 0 55 7l29 -140l-20 -7q-15 37 -51 37h-122v-116q7 1 17 1q191 0 191 -239q0 -121 -57 -181.5t-159 -60.5q-73 0 -147 6v19q33 0 33 42v574
z" />
    <glyph glyph-name="uni0412" unicode="&#x412;" horiz-adv-x="426" 
d="M410 206q0 -104 -59.5 -158t-177.5 -54q-91 0 -151 6v19q13 0 23 9.5t10 23.5v592q0 36 -33 36v19q93 8 154 8q209 0 209 -173q0 -110 -75 -149v-2q38 -11 69 -57.5t31 -119.5zM259 522q0 41 -17.5 62t-45.5 21q-4 0 -8.5 -0.5t-7 -0.5h-3.5v-176q8 -1 15 -1
q30 0 48.5 25t18.5 70zM284 216q0 54 -22 82t-57 28q-19 0 -28 -1v-229q6 -1 27 -1q80 0 80 121z" />
    <glyph glyph-name="uni0413" unicode="&#x413;" horiz-adv-x="378" 
d="M350 559q-15 37 -51 37h-122v-538q0 -16 10.5 -27.5t24.5 -11.5v-19h-190v19q33 0 33 39v583q0 18 -9.5 28.5t-23.5 10.5v19h264q44 0 55 7l29 -140z" />
    <glyph glyph-name="uni0414" unicode="&#x414;" horiz-adv-x="554" 
d="M62 100q-26 0 -38 8l-16 -170l30 -3q3 29 20.5 46.5t51.5 18.5h334q34 -1 51.5 -18.5t20.5 -46.5l30 3l-16 170q-12 -8 -38 -8h-42v541q0 39 33 39v19h-378v-19q14 0 24 -10.5t10 -28.5v-271q0 -146 -22 -210q-19 -53 -53 -60h-2zM262 352v248h66v-501h-104q36 80 38 253
z" />
    <glyph glyph-name="uni0415" unicode="&#x415;" horiz-adv-x="382" 
d="M363 130l-24 -138q-11 8 -46 8h-271v19q14 0 23.5 10.5t9.5 28.5v584q0 38 -33 38v19h256q43 0 55 8l27 -136l-22 -7q-13 35 -43 35h-119v-165h104q16 0 26.5 10t10.5 24h20v-168h-20q0 14 -9.5 24t-27.5 10h-103v-234h116q33 0 50 36z" />
    <glyph glyph-name="uni0401" unicode="&#x401;" horiz-adv-x="382" 
d="M363 130l-24 -138q-11 8 -46 8h-271v19q14 0 23.5 10.5t9.5 28.5v584q0 38 -33 38v19h256q43 0 55 8l27 -136l-22 -7q-13 35 -43 35h-119v-165h104q16 0 26.5 10t10.5 24h20v-168h-20q0 14 -9.5 24t-27.5 10h-103v-234h116q33 0 50 36zM321 782q0 -18 -13.5 -31
t-31.5 -13t-30.5 13t-12.5 31t12.5 31t30.5 13t31.5 -13t13.5 -31zM163 782q0 -18 -13 -31t-31 -13t-31.5 13t-13.5 31t13.5 31t31.5 13t31 -13t13 -31z" />
    <glyph glyph-name="uni0416" unicode="&#x416;" horiz-adv-x="702" 
d="M413 641q0 39 33 39v19h-189v-19q15 0 24 -11.5t9 -27.5v-226h-2l-87 203q-15 34 -15 42q0 20 27 20v19h-188v-19q26 0 37 -23l102 -214q-30 -154 -103 -380q-9 -27 -19.5 -35.5t-25.5 -8.5v-19h159q45 134 81 325l34 -57v-210q0 -18 -9 -28.5t-24 -10.5v-19h189v19
q-14 0 -23.5 10.5t-9.5 28.5v212l33 55q36 -191 81 -325h159v19q-15 0 -25.5 8.5t-19.5 35.5q-73 226 -103 380l102 214q11 23 37 23v19h-188v-19q27 0 27 -20q0 -8 -15 -42l-87 -203h-1v226z" />
    <glyph glyph-name="uni0417" unicode="&#x417;" horiz-adv-x="367" 
d="M347 201q0 -94 -53 -153t-125 -59q-23 0 -60.5 5t-43.5 5q-18 0 -29 -4l-21 134l21 5q21 -48 94 -48q100 0 100 117q0 64 -28.5 92t-64.5 28h-28v85h31q34 0 57 25t23 84q0 94 -86 94q-62 0 -85 -48l-22 6l22 136q8 -4 28 -4q5 0 38 4.5t58 4.5q63 0 112.5 -48.5
t49.5 -130.5q0 -60 -27 -102.5t-59 -57.5v-2q42 -10 70 -54t28 -114z" />
    <glyph glyph-name="uni0418" unicode="&#x418;" horiz-adv-x="460" 
d="M291 641q0 17 -9 28t-24 11v19h180v-19q-15 0 -24 -10.5t-9 -28.5v-583q0 -18 9 -28.5t24 -10.5v-19h-180v19q15 0 24 11t9 28v295h-2l-119 -263v-32q0 -18 9 -28.5t24 -10.5v-19h-173v19q26 0 26 39v583q0 17 -10 28t-24 11v19h181v-19q-15 0 -24.5 -10.5t-9.5 -28.5
v-318h3l107 240q12 27 12 46v32z" />
    <glyph glyph-name="uni0419" unicode="&#x419;" horiz-adv-x="460" 
d="M291 641q0 17 -9 28t-24 11v19h180v-19q-15 0 -24 -10.5t-9 -28.5v-583q0 -18 9 -28.5t24 -10.5v-19h-180v19q15 0 24 11t9 28v295h-2l-119 -263v-32q0 -18 9 -28.5t24 -10.5v-19h-173v19q26 0 26 39v583q0 17 -10 28t-24 11v19h181v-19q-15 0 -24.5 -10.5t-9.5 -28.5
v-318h3l107 240q12 27 12 46v32zM323 787l-60 -80h-69l-62 80h62l34 -46l35 46h60z" />
    <glyph glyph-name="uni041A" unicode="&#x41a;" horiz-adv-x="460" 
d="M452 0h-159q-45 134 -81 325l-34 -57v-210q0 -18 9 -28.5t24 -10.5v-19h-189v19q14 0 23.5 10.5t9.5 28.5v583q0 39 -33 39v19h189v-19q-15 0 -24 -11.5t-9 -27.5v-226h2l87 203q15 34 15 42q0 20 -27 20v19h188v-19q-26 0 -37 -23l-102 -214q30 -154 103 -380
q9 -27 19.5 -35.5t25.5 -8.5v-19z" />
    <glyph glyph-name="uni041B" unicode="&#x41b;" horiz-adv-x="495" 
d="M487 699v-19q-33 0 -33 -39v-583q0 -39 33 -39v-19h-188v19q33 0 33 39v542h-66v-500q-29 -110 -150 -111q-33 0 -69 13.5t-55 28.5l48 117l20 -7q-1 -5 -1 -13q4 -13 13.5 -19.5t23.5 -10.5q27 0 37 12t10 39v492q0 18 -10 28.5t-24 10.5v19h378z" />
    <glyph glyph-name="uni041C" unicode="&#x41c;" horiz-adv-x="567" 
d="M545 0h-189v19q14 0 23.5 10.5t9.5 28.5v362h-2l-87 -271h-38l-90 271h-2v-362q0 -19 9.5 -29t23.5 -10v-19h-181v19q14 0 23.5 10.5t9.5 28.5v583q0 39 -33 39v19h165q0 -29 7 -49l91 -265h3l82 257q11 34 10 57h165v-19q-14 0 -23.5 -11t-9.5 -28v-583q0 -18 9 -28.5
t24 -10.5v-19z" />
    <glyph glyph-name="uni041D" unicode="&#x41d;" horiz-adv-x="469" 
d="M447 0h-188v19q33 0 33 39v276h-114v-276q0 -18 9 -28.5t24 -10.5v-19h-189v19q14 0 23.5 10.5t9.5 28.5v583q0 18 -9.5 28.5t-23.5 10.5v19h189v-19q-15 0 -24 -10.5t-9 -28.5v-208h114v208q0 39 -33 39v19h188v-19q-33 0 -33 -39v-583q0 -39 33 -39v-19z" />
    <glyph glyph-name="uni041E" unicode="&#x41e;" horiz-adv-x="418" 
d="M400 366q0 -202 -46 -293.5t-145 -91.5q-98 0 -144.5 93t-46.5 291q0 355 193 355q189 0 189 -354zM274 365q0 136 -15 195.5t-50 59.5q-65 0 -65 -255q0 -155 16 -219t51 -64q33 0 48 63t15 220z" />
    <glyph glyph-name="uni041F" unicode="&#x41f;" horiz-adv-x="469" 
d="M447 0h-188v19q33 0 33 39v542h-114v-542q0 -18 9 -28.5t24 -10.5v-19h-189v19q14 0 23.5 10.5t9.5 28.5v583q0 18 -9.5 28.5t-23.5 10.5v19h425v-19q-33 0 -33 -39v-583q0 -39 33 -39v-19z" />
    <glyph glyph-name="uni0420" unicode="&#x420;" horiz-adv-x="380" 
d="M364 463q0 -239 -191 -239q-10 0 -17 1v-167q0 -18 9.5 -28.5t25.5 -10.5v-19h-190v19q14 0 23.5 10.5t9.5 28.5v580q0 42 -33 42v19q74 6 147 6q102 0 159 -60.5t57 -181.5zM240 463q0 70 -18.5 105.5t-49.5 35.5q-9 0 -16 -1v-279q6 -1 16 -1q68 0 68 140z" />
    <glyph glyph-name="uni0421" unicode="&#x421;" horiz-adv-x="369" 
d="M351 131l-24 -140q-9 3 -23 3q-1 0 -28 -3.5t-45 -3.5q-106 0 -159.5 96t-53.5 271q0 170 57 264.5t156 94.5q13 0 39.5 -3.5t31.5 -3.5q14 0 26 4l22 -134l-22 -6q-16 42 -75 42q-48 0 -78.5 -65t-30.5 -193q0 -146 27.5 -206t85.5 -60q31 0 47 11t25 38z" />
    <glyph glyph-name="uni0422" unicode="&#x422;" horiz-adv-x="411" 
d="M403 571l-20 -5q-7 18 -17.5 25.5t-34.5 7.5h-64v-541q0 -17 9 -28t24 -11v-19h-189v19q14 0 24 10.5t10 28.5v541h-67q-22 0 -33 -7.5t-16 -25.5l-21 5l24 135q16 -7 45 -7h262q26 0 38 8z" />
    <glyph glyph-name="uni0423" unicode="&#x423;" horiz-adv-x="441" 
d="M163 255l-114 395q-8 30 -34 30v19h186v-19q-24 0 -24 -19q0 -8 4 -28l50 -235h2l55 243q3 15 3 18q0 21 -27 21v19h171v-19q-23 0 -31 -28l-119 -397l-52 -173q-27 -84 -120 -93q-35 2 -61 13q-36 14 -60 29l48 117l20 -7q-1 -5 -1 -12q0 -13 8 -24t22 -13q20 0 27 14
q4 7 7 16z" />
    <glyph glyph-name="uni0424" unicode="&#x424;" horiz-adv-x="570" 
d="M224 533q-7 1 -16 1q-31 0 -49.5 -35.5t-18.5 -105.5q0 -140 68 -140q10 0 16 1v279zM346 254q6 -1 16 -1q68 0 68 140q0 70 -18.5 105.5t-49.5 35.5q-9 0 -16 -1v-279zM223 155q-7 -1 -16 -1q-191 0 -191 239q0 121 57 182q54 57 150 60v7q0 38 -33 38v19h189v-19
q-33 0 -33 -38v-7q96 -2 151 -60q57 -61 57 -182q0 -239 -191 -239q-10 0 -17 1v-97q0 -18 9.5 -28.5t25.5 -10.5v-19h-191v19q14 0 23.5 10.5t9.5 28.5v97z" />
    <glyph glyph-name="uni0425" unicode="&#x425;" horiz-adv-x="441" 
d="M427 0h-190v19q23 0 23 21q0 6 -4 26l-42 185h-1l-41 -187q-4 -20 -4 -22q0 -23 25 -23v-19h-179v19q27 0 38 37l97 305l-95 283q-13 36 -36 36v19h190v-19q-12 0 -19 -6t-7 -14q0 -12 5 -29l41 -162h2l41 166q3 12 3 21q0 24 -25 24v19h175v-19q-25 0 -37 -36l-97 -285
l99 -303q12 -37 38 -37v-19z" />
    <glyph glyph-name="uni0426" unicode="&#x426;" horiz-adv-x="518" 
d="M414 100h42q26 0 38 8l16 -170l-30 -3q-3 29 -20.5 46.5t-51.5 18.5h-386v19q14 0 23.5 10.5t9.5 28.5v583q0 18 -9.5 28.5t-23.5 10.5v19h189v-19q-15 0 -24 -10.5t-9 -28.5v-542h114v542q0 39 -33 39v19h188v-19q-33 0 -33 -39v-541z" />
    <glyph glyph-name="uni0427" unicode="&#x427;" horiz-adv-x="461" 
d="M408 58q0 -39 33 -39v-19h-181v19q14 0 23.5 10.5t9.5 28.5v219q-29 -8 -61 -8q-115 0 -188 91q7 20 7 58v224q0 18 -9.5 28t-23.5 10v19h187v-19q-33 0 -33 -38v-212q0 -30 17 -44.5t43 -14.5t44 15q17 15 17 43v213q0 38 -33 38v19h181v-19q-33 0 -33 -38v-584z" />
    <glyph glyph-name="uni0428" unicode="&#x428;" horiz-adv-x="712" 
d="M292 641q0 39 -33 39v19h189v-19q-15 0 -24 -10.5t-9 -28.5v-542h114v542q0 39 -33 39v19h188v-19q-33 0 -33 -39v-583q0 -39 33 -39v-19h-662v19q14 0 23.5 10.5t9.5 28.5v583q0 18 -9.5 28.5t-23.5 10.5v19h189v-19q-15 0 -24 -10.5t-9 -28.5v-542h114v542z" />
    <glyph glyph-name="uni0429" unicode="&#x429;" horiz-adv-x="755" 
d="M645 0h-623v19q14 0 23.5 10.5t9.5 28.5v583q0 18 -9.5 28.5t-23.5 10.5v19h189v-19q-15 0 -24 -10.5t-9 -28.5v-542h114v542q0 39 -33 39v19h189v-19q-15 0 -24 -10.5t-9 -28.5v-542h114v542q0 39 -33 39v19h188v-19q-33 0 -33 -39v-541h42q26 0 38 8l16 -170l-30 -3
q-3 29 -20.5 46.5t-51.5 18.5z" />
    <glyph glyph-name="uni042A" unicode="&#x42a;" horiz-adv-x="491" 
d="M283 377q-10 0 -16 -1v-279q7 -1 16 -1q31 0 49.5 35.5t18.5 105.5q0 140 -68 140zM302 700v-19h-2v-1q-14 0 -23.5 -10.5t-9.5 -28.5v-166q7 1 17 1q191 0 191 -239q0 -121 -57 -181.5t-159 -60.5q-73 0 -147 6v19q33 0 33 42v538h-67q-22 0 -33 -7.5t-16 -25.5l-21 5
l24 135q16 -7 45 -7h225z" />
    <glyph glyph-name="uni042B" unicode="&#x42b;" horiz-adv-x="600" 
d="M326 54.5q-57 -60.5 -159 -60.5q-73 0 -147 6v19q33 0 33 42v580q0 18 -9.5 28.5t-23.5 10.5v19h190v-19q-16 0 -25.5 -10.5t-9.5 -28.5v-167q7 1 17 1q191 0 191 -239q0 -121 -57 -181.5zM191 376q-10 0 -16 -1v-279q7 -1 16 -1q31 0 49.5 35.5t18.5 105.5
q0 140 -68 140zM580 0h-189v19q14 0 23.5 10.5t9.5 28.5v584q0 38 -33 38v19h189v-19q-33 0 -33 -38v-584q0 -39 33 -39v-19z" />
    <glyph glyph-name="uni042C" unicode="&#x42c;" horiz-adv-x="380" 
d="M307 55.5q-57 -60.5 -159 -60.5q-73 0 -147 6v19q33 0 33 42v580q0 18 -9.5 28.5t-23.5 10.5v19h190v-19q-16 0 -25.5 -10.5t-9.5 -28.5v-167q7 1 17 1q191 0 191 -239q0 -121 -57 -181.5zM172 377q-10 0 -16 -1v-279q7 -1 16 -1q31 0 49.5 35.5t18.5 105.5
q0 140 -68 140z" />
    <glyph glyph-name="uni042D" unicode="&#x42d;" horiz-adv-x="369" 
d="M222 431q-7 72 -27 116q-31 65 -79 65q-59 0 -75 -42l-22 6l22 134q12 -4 26 -4q5 0 31.5 3.5t39.5 3.5q99 0 156 -94.5t57 -264.5q0 -175 -53.5 -271t-159.5 -96q-18 0 -45 3.5t-28 3.5q-14 0 -23 -3l-24 140l22 6q9 -27 25 -38t47 -11q58 0 86 60q26 57 27 191h-133v92
h130z" />
    <glyph glyph-name="uni042E" unicode="&#x42e;" horiz-adv-x="644" 
d="M500 365q0 136 -15 195.5t-50 59.5q-65 0 -65 -255q0 -155 16 -219t51 -64q33 0 48 63t15 220zM246 433q17 287 191 287q189 0 189 -354q0 -202 -46 -293.5t-145 -91.5q-98 0 -144 93q-43 86 -47 260h-70v-276q0 -18 9 -28.5t24 -10.5v-19h-189v19q14 0 23.5 10.5
t9.5 28.5v583q0 18 -9.5 28.5t-23.5 10.5v19h189v-19q-15 0 -24 -10.5t-9 -28.5v-208h72z" />
    <glyph glyph-name="uni042F" unicode="&#x42f;" horiz-adv-x="439" 
d="M8 19q12 0 23 9.5t15 21.5q42 142 63 268q-78 40 -78 179q0 210 210 210q93 0 176 -8v-19q-33 0 -33 -38v-584q0 -18 9.5 -28.5t23.5 -10.5v-19h-188v19q15 0 24 11t9 28v227h-50q-5 -60 -20 -148t-29 -137h-155v19zM238 380q16 0 24 1v224q-4 1 -24 1q-81 0 -81 -111
q0 -115 81 -115z" />
    <glyph glyph-name="uni0430" unicode="&#x430;" horiz-adv-x="378" 
d="M372 0h-157v18q20 0 20 17q0 24 -5 52q-22 -8 -46 -8t-46 8q-6 -34 -6 -52q0 -17 20 -17v-18h-146v18q21 0 24 22l78 470q2 16 2 17q0 14 -15 14v18h188v-18q-14 0 -14 -13q0 -5 2 -19l76 -468q4 -23 25 -23v-18zM219 176l-36 273h-1l-32 -273q13 -8 35 -8q18 0 34 8z
" />
    <glyph glyph-name="uni0431" unicode="&#x431;" horiz-adv-x="302" 
d="M143 305h-13v-223q6 -1 13 -1q25 0 39.5 28.5t14.5 83.5q0 112 -54 112zM32 513q0 14 -7.5 22.5t-18.5 8.5v15h211q35 0 44 5l23 -111l-16 -6q-12 30 -41 30h-97v-93q6 1 14 1q152 0 152 -192q0 -96 -45.5 -144.5t-126.5 -48.5q-59 0 -118 5v15q26 0 26 34v459z" />
    <glyph glyph-name="uni0432" unicode="&#x432;" horiz-adv-x="353" 
d="M341 166q0 -89 -51.5 -130.5t-154.5 -41.5q-55 0 -129 6v18q29 0 29 26v469q0 28 -29 28v18q64 6 133 6q181 0 181 -140q0 -82 -61 -115v-3q30 -11 56 -51t26 -90zM208 413q0 66 -51 66q-6 0 -13 -1v-133q5 -1 10 -1q54 0 54 69zM229 166q0 92 -64 92q-12 0 -21 -1v-176
q8 -1 20 -1q27 0 46 19.5t19 66.5z" />
    <glyph glyph-name="uni0433" unicode="&#x433;" horiz-adv-x="290" 
d="M268 447q-12 30 -40 30h-98v-431q0 -12 8.5 -21.5t19.5 -9.5v-15h-152v15q26 0 26 31v467q0 14 -7.5 22.5t-18.5 8.5v15h211q35 0 44 6l23 -112z" />
    <glyph glyph-name="uni0434" unicode="&#x434;" horiz-adv-x="440" 
d="M44 70q-21 0 -31 6l-13 -139l25 -2q2 24 16.5 38t41.5 15h273q28 -1 42.5 -15t16.5 -38l25 2l-13 139q-10 -6 -31 -6h-35v442q0 32 27 32v15h-309v-15q12 0 20 -8.5t8 -23.5v-221q0 -120 -18 -172q-15 -43 -43 -49h-2zM208 276v202h54v-409h-85q29 65 31 207z" />
    <glyph glyph-name="uni0435" unicode="&#x435;" horiz-adv-x="307" 
d="M301 111l-21 -117q-12 6 -38 6h-235v18q13 0 21 8.5t8 22.5v463q0 13 -8 21t-21 8v18h228q25 0 39 6l22 -113l-18 -6q-9 29 -33 29h-101v-125h83q14 0 23.5 7t9.5 19h18v-139h-18q0 28 -33 28h-82v-180h99q24 0 39 32z" />
    <glyph glyph-name="uni0451" unicode="&#x451;" horiz-adv-x="307" 
d="M301 111l-21 -117q-12 6 -38 6h-235v18q13 0 21 8.5t8 22.5v463q0 13 -8 21t-21 8v18h228q25 0 39 6l22 -113l-18 -6q-9 29 -33 29h-101v-125h83q14 0 23.5 7t9.5 19h18v-139h-18q0 28 -33 28h-82v-180h99q24 0 39 32zM281 664q0 -18 -13.5 -31t-31.5 -13t-30.5 13
t-12.5 31t12.5 31t30.5 13t31.5 -13t13.5 -31zM123 664q0 -18 -13 -31t-31 -13t-31.5 13t-13.5 31t13.5 31t31.5 13t31 -13t13 -31z" />
    <glyph glyph-name="uni0436" unicode="&#x436;" horiz-adv-x="548" 
d="M324 513q0 31 26 31v15h-151v-15q12 0 19 -9t7 -22v-181h-1l-70 162q-12 28 -12 34q0 16 22 16v15h-151v-15q21 0 30 -18l81 -172q-24 -123 -82 -304q-7 -21 -15.5 -28t-20.5 -7v-15h127q36 107 65 260l27 -46v-168q0 -14 -7 -22.5t-19 -8.5v-15h151v15q-11 0 -18.5 8.5
t-7.5 22.5v170l26 44q29 -153 65 -260h127v15q-12 0 -20.5 7t-15.5 28q-58 181 -82 304l81 172q9 18 30 18v15h-151v-15q22 0 22 -16q0 -6 -12 -34l-70 -162v0v181z" />
    <glyph glyph-name="uni0437" unicode="&#x437;" horiz-adv-x="282" 
d="M272 159q0 -75 -42.5 -122.5t-100.5 -47.5q-18 0 -48 4t-35 4q-14 0 -23 -3l-17 107l17 4q17 -38 75 -38q80 0 80 93q0 52 -22.5 74.5t-51.5 22.5h-23v68h25q27 0 45.5 20t18.5 67q0 75 -69 75q-49 0 -68 -38l-17 5l17 109q7 -4 23 -4q4 0 30.5 4t46.5 4q50 0 89.5 -39
t39.5 -105q0 -48 -21.5 -82t-47.5 -46v-2q34 -8 56.5 -43t22.5 -91z" />
    <glyph glyph-name="uni0438" unicode="&#x438;" horiz-adv-x="344" 
d="M221 513q0 14 -7 22.5t-19 8.5v15h144v-15q-12 0 -19 -8.5t-7 -22.5v-467q0 -14 7 -22.5t19 -8.5v-15h-144v15q12 0 19 9t7 22v237h-1l-96 -211v-26q0 -14 7.5 -22.5t19.5 -8.5v-15h-139v15q21 0 21 31v467q0 14 -8 22.5t-19 8.5v15h145v-15q-12 0 -19.5 -8.5t-7.5 -22.5
v-254h2l86 192q9 21 9 36v26z" />
    <glyph glyph-name="uni0439" unicode="&#x439;" horiz-adv-x="347" 
d="M223 512q0 14 -7 23t-19 9v15h144v-15q-12 0 -19.5 -8.5t-7.5 -23.5v-466q0 -14 7.5 -22.5t19.5 -8.5v-15h-144v15q12 0 19 9t7 22v236h-2l-95 -210v-26q0 -14 7.5 -22.5t19.5 -8.5v-15h-139v15q21 0 21 31v466q0 14 -8 23t-19 9v15h145v-15q-12 0 -19.5 -8.5t-7.5 -23.5
v-254h2l85 192q10 22 10 37v25zM249 629l-48 -64h-56l-49 64h49l28 -37l28 37h48z" />
    <glyph glyph-name="uni043A" unicode="&#x43a;" horiz-adv-x="384" 
d="M378 0h-136q-41 111 -67 252l-31 -38v-165q0 -13 8.5 -22t21.5 -9v-18h-168v18q13 0 21 8.5t8 22.5v462q0 30 -29 30v18h168v-18q-13 0 -21.5 -8.5t-8.5 -21.5v-178h5l66 159q12 28 12 35q0 14 -22 14v18h163v-18q-21 0 -31 -19l-81 -164q29 -157 84 -304q8 -22 16.5 -29
t21.5 -7v-18z" />
    <glyph glyph-name="uni043B" unicode="&#x43b;" horiz-adv-x="403" 
d="M397 559v-16q-26 0 -26 -31v-468q0 -31 26 -31v-15h-151v15q27 0 27 31v435h-53v-401q-23 -88 -121 -89q-26 0 -55 11t-44 23l39 94l16 -6q-1 -4 -1 -10q3 -11 10.5 -16t18.5 -9q22 0 30 10t8 31v395q0 15 -8 23t-19 8v16h303z" />
    <glyph glyph-name="uni043C" unicode="&#x43c;" horiz-adv-x="461" 
d="M455 0h-168v18q13 0 21.5 8.5t8.5 22.5v275h-2l-68 -198h-37l-71 199h-3v-276q0 -14 8.5 -22.5t21.5 -8.5v-18h-160v18q13 0 21 8.5t8 22.5v462q0 30 -29 30v18h141q-1 -16 9 -41l74 -204h3l67 198q9 22 9 47h146v-18q-13 0 -21.5 -8.5t-8.5 -21.5v-462q0 -13 8.5 -22
t21.5 -9v-18z" />
    <glyph glyph-name="uni043D" unicode="&#x43d;" horiz-adv-x="380" 
d="M374 0h-168v18q14 0 22 8.5t8 22.5v216h-92v-216q0 -14 8 -22.5t22 -8.5v-18h-168v18q13 0 21 8.5t8 22.5v462q0 13 -8 21.5t-21 8.5v18h168v-18q-30 0 -30 -30v-162h92v162q0 13 -8.5 21.5t-21.5 8.5v18h168v-18q-29 0 -29 -30v-462q0 -14 8 -22.5t21 -8.5v-18z" />
    <glyph glyph-name="uni043E" unicode="&#x43e;" horiz-adv-x="359" 
d="M344 293q0 -161 -40 -235.5t-125 -74.5q-84 0 -124 75.5t-40 233.5q0 285 165 285q164 0 164 -284zM232 292q0 106 -13 152.5t-40 46.5q-52 0 -52 -199q0 -123 13 -173t40 -50q17 0 28 19t17.5 69.5t6.5 134.5z" />
    <glyph glyph-name="uni043F" unicode="&#x43f;" horiz-adv-x="352" 
d="M346 0h-150v15q26 0 26 31v434h-91v-434q0 -14 7 -22.5t19 -8.5v-15h-151v15q11 0 18.5 8.5t7.5 22.5v467q0 14 -7.5 22.5t-18.5 8.5v15h340v-15q-26 0 -26 -31v-467q0 -31 26 -31v-15z" />
    <glyph glyph-name="uni0440" unicode="&#x440;" horiz-adv-x="335" 
d="M320 371q0 -98 -43 -145.5t-121 -47.5q-5 0 -12 1v-130q0 -13 7.5 -22t21.5 -9v-18h-167v18q13 0 21 8.5t8 22.5v459q0 33 -29 33v18q57 5 128 5q88 0 137 -48t49 -145zM210 371q0 55 -15.5 81t-39.5 26q-5 0 -11 -1v-215q7 -1 11 -1q55 0 55 110z" />
    <glyph glyph-name="uni0441" unicode="&#x441;" horiz-adv-x="321" 
d="M306 109l-23 -116q-9 3 -22 3q-1 0 -23 -3.5t-39 -3.5q-92 0 -138 78t-46 217q0 135 49.5 210.5t134.5 75.5q12 0 34 -2.5t27 -2.5q16 0 24 4l19 -114l-20 -6q-10 19 -24 27t-42 8q-39 0 -65 -49.5t-26 -150.5q0 -115 23.5 -162t71.5 -47q45 0 63 42z" />
    <glyph glyph-name="uni0442" unicode="&#x442;" horiz-adv-x="353" 
d="M347 450l-19 -6q-7 17 -15 24t-27 7h-55v-426q0 -13 8.5 -22t21.5 -9v-18h-169v18q13 0 21.5 9t8.5 22v426h-57q-32 0 -41 -30l-18 6l22 115q14 -7 39 -7h222q21 0 35 8z" />
    <glyph glyph-name="uni0443" unicode="&#x443;" horiz-adv-x="360" 
d="M135 203l-91 317q-7 24 -28 24v15h150v-15q-19 0 -19 -15q0 -7 3 -23l40 -189h2l44 196q2 12 2 14q0 17 -22 17v15h138v-15q-19 0 -25 -23l-96 -318l-41 -139q-22 -68 -97 -75q-28 2 -49 10q-29 12 -48 24l39 94l16 -6q-1 -4 -1 -10q0 -10 6 -19q7 -9 18 -10q16 0 22 11
q3 6 5 13z" />
    <glyph glyph-name="uni0444" unicode="&#x444;" horiz-adv-x="460" 
d="M181 426q-5 1 -13 1q-24 0 -39 -28.5t-15 -84.5q0 -112 54 -112q8 0 13 1v223zM279 203q5 -1 13 -1q54 0 54 112q0 56 -15 84.5t-39 28.5q-8 0 -13 -1v-223zM180 124q-5 -1 -12 -1q-153 0 -153 191q0 97 46 146q43 45 119 48v5q0 30 -26 30v16h151v-16q-26 0 -26 -30v-5
q76 -2 120 -48q46 -49 46 -146q0 -191 -153 -191q-8 0 -13 1v-78q0 -14 7.5 -22.5t20.5 -8.5v-15h-153v15q11 0 18.5 8.5t7.5 22.5v78z" />
    <glyph glyph-name="uni0445" unicode="&#x445;" horiz-adv-x="367" 
d="M361 0h-165v19q20 0 20 16q0 7 -4 21l-33 122h-2l-34 -123q-4 -16 -4 -19q0 -17 22 -17v-19h-155v19q20 0 32 29l90 237l-86 227q-12 29 -33 29v18h167v-18q-22 0 -22 -14q0 -5 4 -21l33 -124h2l32 124q3 12 3 17q0 18 -21 18v18h153v-18q-21 0 -31 -29l-86 -233l86 -231
q11 -29 32 -29v-19z" />
    <glyph glyph-name="uni0446" unicode="&#x446;" horiz-adv-x="397" 
d="M320 80h33q20 0 30 6l13 -136l-23 -2q-3 24 -17 37.5t-41 14.5h-309v16q11 0 19 8t8 22v466q0 15 -8 23t-19 8v16h151v-16q-12 0 -19 -8t-7 -23v-433h91v433q0 31 -27 31v16h151v-16q-26 0 -26 -31v-432z" />
    <glyph glyph-name="uni0447" unicode="&#x447;" horiz-adv-x="349" 
d="M318 46q0 -31 26 -31v-15h-145v15q12 0 19.5 8.5t7.5 22.5v175q-23 -6 -49 -6q-92 0 -150 73q5 16 5 46v179q0 14 -7.5 22t-18.5 8v16h149v-16q-26 0 -26 -30v-169q0 -24 13.5 -36t34.5 -12t35 12t14 35v170q0 30 -27 30v16h145v-16q-26 0 -26 -30v-467z" />
    <glyph glyph-name="uni0448" unicode="&#x448;" horiz-adv-x="541" 
d="M222 512q0 31 -27 31v16h151v-16q-12 0 -19 -8t-7 -23v-433h91v433q0 31 -26 31v16h150v-16q-26 0 -26 -31v-466q0 -31 26 -31v-15h-529v15q11 0 18.5 8.5t7.5 22.5v466q0 15 -7.5 23t-18.5 8v16h151v-16q-12 0 -19 -8t-7 -23v-433h91v433z" />
    <glyph glyph-name="uni0449" unicode="&#x449;" horiz-adv-x="587" 
d="M505 0h-499v15q11 0 18.5 8.5t7.5 22.5v466q0 15 -7.5 23t-18.5 8v16h151v-16q-12 0 -19.5 -8t-7.5 -23v-433h92v433q0 31 -26 31v16h151v-16q-12 0 -19.5 -8t-7.5 -23v-433h92v433q0 31 -27 31v16h151v-16q-26 0 -26 -31v-432h33q20 0 30 6l13 -136l-24 -2
q-2 23 -16.5 37t-40.5 15z" />
    <glyph glyph-name="uni044A" unicode="&#x44a;" horiz-adv-x="385" 
d="M224 298q-8 0 -13 -1v-221q6 -1 13 -1q24 0 39 28t15 84q0 111 -54 111zM239 554v-15h-2v-1q-11 0 -18.5 -8.5t-7.5 -22.5v-132q6 1 14 1q151 0 151 -189q0 -96 -45 -144t-126 -48q-58 0 -117 5v15q27 0 27 33v426h-54q-17 0 -25.5 -6t-12.5 -20l-17 4l19 107
q13 -5 36 -5h178z" />
    <glyph glyph-name="uni044B" unicode="&#x44b;" horiz-adv-x="461" 
d="M251.5 42.5q-45.5 -48.5 -127.5 -48.5q-59 0 -118 5v15q26 0 26 34v465q0 14 -7.5 22.5t-18.5 8.5v15h152v-15q-12 0 -20 -8.5t-8 -22.5v-134q6 1 14 1q153 0 153 -192q0 -97 -45.5 -145.5zM143 300q-8 0 -13 -1v-223q6 -1 13 -1q25 0 40 28.5t15 84.5q0 112 -55 112z
M455 -1h-152v15q12 0 19.5 8.5t7.5 22.5v469q0 30 -27 30v15h152v-15q-26 0 -26 -30v-469q0 -31 26 -31v-15z" />
    <glyph glyph-name="uni044C" unicode="&#x44c;" horiz-adv-x="331" 
d="M268.5 47.5q-48.5 -47.5 -135.5 -47.5q-71 0 -127 5v18q29 0 29 32v455q0 14 -8 22.5t-21 8.5v18h165v-18q-13 0 -20.5 -9t-7.5 -22v-129q7 1 12 1q77 0 119.5 -47t42.5 -144q0 -96 -48.5 -143.5zM154 300q-4 0 -11 -1v-213q6 -1 11 -1q23 0 38.5 26t15.5 80
q0 109 -54 109z" />
    <glyph glyph-name="uni044D" unicode="&#x44d;" horiz-adv-x="288" 
d="M170 343q-6 58 -22 93q-25 52 -63 52q-48 0 -61 -34l-17 5l17 108q10 -4 21 -4q4 0 25.5 3t31.5 3q80 0 125.5 -75.5t45.5 -212.5q0 -140 -43 -217t-128 -77q-14 0 -36 3l-22 3q-12 0 -19 -3l-19 112l18 5q7 -21 20 -30t37 -9q47 0 69 48q21 46 22 153h-107v74h105z" />
    <glyph glyph-name="uni044E" unicode="&#x44e;" horiz-adv-x="511" 
d="M394 290q0 110 -12 158t-40 48q-52 0 -52 -206q0 -125 12.5 -176.5t40.5 -51.5q27 0 39 51t12 177zM190 345q13 231 153 231q153 0 153 -285q0 -163 -37 -236.5t-117 -73.5q-79 0 -116 75q-35 69 -38 209h-56v-222q0 -14 7 -22.5t19 -8.5v-16h-152v16q11 0 19 8.5t8 22.5
v470q0 14 -8 22.5t-19 8.5v15h152v-15q-12 0 -19 -8.5t-7 -22.5v-168h58z" />
    <glyph glyph-name="uni044F" unicode="&#x44f;" horiz-adv-x="366" 
d="M6 18q25 0 33 25q37 111 53 210q-66 42 -66 144q0 168 181 168q83 0 153 -6v-18q-29 0 -29 -29v-463q0 -14 8 -22.5t21 -8.5v-18h-167v18q29 0 29 31v173h-35q-10 -103 -45 -222h-136v18zM157 321q19 -22 48 -22q12 0 17 1v179q-8 1 -17 1q-28 0 -47.5 -21t-19.5 -68
q0 -48 19 -70z" />
    </font>
</defs>
</svg>
